<svg xmlns="http://www.w3.org/2000/svg" id="prefix__svg1" width="128" height="128" version="1.1"><style id="style1">@media (prefers-color-scheme:dark){:root{fill:#fff}}</style><g id="prefix__g1" fill="#fff" fill-rule="evenodd" stroke="#000" stroke-linecap="round" stroke-linejoin="round" stroke-opacity="1" stroke-width="1.002"><path id="prefix__path1" stroke-dasharray="none" stroke-width="2" d="M23.256 235.216c-1.362-.036-2.246.984-2.246 2.266v56.253h.023l-.023.2v.145h-.017c-.193 7.462-6.355 13.417-13.903 13.436-7.7 0-13.943-6.174-13.943-13.79 0-7.615 6.243-13.789 13.943-13.789.71-.021 5.427-.02 5.888-.017 1.986.011 1.91.037 1.942-1.724v-11.202c-.01-1.763-.207-1.794-1.674-1.895-.664-.046-5.48-.069-6.156-.069-16.025 0-29.017 12.848-29.017 28.697 0 15.848 12.992 28.696 29.017 28.696 16.026 0 29.018-12.848 29.018-28.696 0-.418-.014-.832-.032-1.246 0 0-.087-53.299 0-54.85.087-1.55-.121-2.415-2.53-2.409-3.457.008-9.338.018-10.29-.007zm22.214 0c-1.339-.033-2.219.95-2.219 2.212 0 0 .03 9.124 0 10.46-.03 1.335.943 2.233 2.23 2.233h20.207c.955-.02.963-.069.271.573L44.615 270.49c-1.603 1.384-1.716 1.165-.247 2.703l8.11 8.509c1.137 1.19 1.318.833 2.398.223a14.068 14.068 0 0 1 6.64-1.69c7.7 0 13.943 6.174 13.943 13.79 0 7.615-6.243 13.788-13.943 13.788a13.97 13.97 0 0 1-11.784-6.414c-.653-1.281-.732-1.146-1.991-.435l-10.517 5.94c-1.333.698-1.206.885-.561 1.942a29.068 29.068 0 0 0 24.853 13.875c15.77 0 28.593-12.445 28.998-27.944v-1.22c-.199-12.204-8.09-22.555-19.097-26.507-.884-.254-.744-.291-.092-.896l16.658-15.45c.785-.699.849-1.103.847-1.919-.007-2.864-.023-10.256.003-11.334.032-1.341-.958-2.236-2.25-2.236 0 0-39.774.032-41.113 0z" paint-order="normal" transform="translate(29.707 -214.968)"/></g></svg>