<svg xmlns="http://www.w3.org/2000/svg" xmlns:xlink="http://www.w3.org/1999/xlink" width="512mm" height="512mm" version="1.1" viewBox="0 0 512 512"><g paint-order="stroke markers fill" transform="translate(-32.646 -101.85)"><path fill="url(#c)" fill-opacity="1" stroke="none" stroke-linecap="round" stroke-linejoin="round" stroke-opacity=".993" stroke-width="5.292" d="M33.588 102.792H543.705V612.909H33.588z"/><path fill="#303333" fill-rule="evenodd" stroke-width="1" d="M267.51 370.18c-12.975-.042-26.431 3.206-35.634 9.281l-54.516 35.983c-9.942 6.57-10.954 4.25-10.345 25.167-.135 26.47-.39 32.077 12.925 39.256l109.764 41.885c16.438 5 26.33 5.88 41.382-1.872l67.53-40.105c11.888-9.8 11.612-13.303 11.57-31.012.091-18.363 2.947-26.77-14.15-33.407l-106.725-41.453c-6.411-2.491-14.018-3.698-21.802-3.722z" style="font-variation-settings:normal;-inkscape-stroke:none"/><rect width="34.232" height="139.032" x="271.528" y="283.825" fill="#b3b3b3" fill-rule="evenodd" stroke-width="1" rx="8" ry="2" style="font-variation-settings:normal;-inkscape-stroke:none"/><circle cx="288.646" cy="242.29" r="53.072" fill="red" stroke-width="1"/><path fill="#fffbfe" fill-opacity=".303" stroke-width="1" d="m282.366 295.363-1.543 127.285s86.016 26.525 86.112 29.105c.042 1.118-52.372 27.643-52.372 27.643-3.73 2.696-2.045 39.663-2.038 45.897 0 0-10.317 2.275-28.97-5.066-18.65-7.342-103.668-40.29-103.668-40.29-1.27-.53-12.32-4.125-12.996-20.793-.658-16.293.485-33.931.485-33.931l145.584 54.64s.722-1.74.16-2.091c-3.868-2.42-146.378-53.904-146.31-55.956 0 0 20.55-12.543 19.477-12.554-1.072-.01 84.997 7.441 84.997 7.441l.662-124.366z"/><path fill="#fffbfe" fill-opacity=".488" stroke-width="1" d="M282.366 295.363c-21.286-5.428-37.441-13.499-45.487-41.517-5.173-35.205 10.873-43.64 29.169-39.663 20.178 4.67 17.004 48.904 16.318 81.18z"/><path fill="#00000e" fill-opacity=".279" stroke-width="1" d="M337.221 263.933s-11.102 23.585-32.653 28.617l-.007 86.826 85.606 33.047c16.501 6.368 16.222 9.864 19.08 13.402-1.535-.014-24.926 18.728-26.574 18.338l-87.527-20.75c-2.912-2.29 2.119-129.048 2.119-129.048 38.68-40.802 6.022-91.235 4.54-103.445 41.937 13.944 43.643 49.782 35.416 73.017z"/></g></svg>