<svg xmlns="http://www.w3.org/2000/svg" version="1.1" width="140" height="140" id="prefix__prefix__Livello_5" x="0" y="0" viewBox="0 0 209.51 303.915" xml:space="preserve"><style id="style833">.prefix__prefix__st0{fill:#fff}.prefix__prefix__st1{fill:none;stroke:#000;stroke-width:.25;stroke-miterlimit:10}</style><g id="prefix__prefix__XMLID_4_" transform="matrix(.7037 0 0 .70369 -84.022 -125.875)" stroke-width="1.421"><path class="prefix__prefix__st0" d="M433.05 264.79l-33.49 266.15-227.26-29.28 32.34-265.61zm-40.28 207.82l24.48-196.74-200.86-25.39-24.77 196.82z" id="prefix__path835" stroke-width="1.421"/><path class="prefix__prefix__st1" d="M204.65 236.05L172.3 501.66l227.27 29.28 33.48-266.15z" id="prefix__path837"/><path class="prefix__prefix__st1" d="M216.39 250.48l200.86 25.39-24.48 196.74-201.15-25.31z" id="prefix__path839"/></g><path d="M68.252 50.377L209.598 68.25l-17.226 138.444-141.55-17.81z" id="prefix__path842" stroke-width="1"/><path class="prefix__prefix__st0" d="M86.528 81.487l9.732 1.224c7.79.978 15.573 1.956 23.363 2.942l28.162 3.546 24.341 3.061 8.05 1.014c1.26.161 2.54.4 3.815.478.056 0 .113.01.161.021.943.119 1.76-.893 1.76-1.759 0-1.048-.81-1.64-1.76-1.759l-9.732-1.224c-7.79-.979-15.573-1.957-23.363-2.942l-28.162-3.547-24.341-3.06-8.05-1.014c-1.26-.162-2.54-.401-3.815-.479a.79.79 0 01-.161-.021c-.944-.119-1.76.894-1.76 1.76 0 1.048.81 1.639 1.76 1.758zm-3.519 27.93l9.732 1.223c7.79.979 15.573 1.957 23.363 2.942l28.162 3.547 24.342 3.06 8.05 1.014c1.26.162 2.54.401 3.814.478a.66.66 0 01.162.022c.943.118 1.76-.894 1.76-1.76 0-1.048-.81-1.639-1.76-1.758l-9.732-1.225c-7.79-.978-15.573-1.956-23.363-2.941l-28.163-3.547-24.34-3.06-8.051-1.014c-1.26-.162-2.54-.401-3.814-.479a.673.673 0 01-.162-.021c-.943-.119-1.76.894-1.76 1.76 0 1.055.817 1.639 1.76 1.758zm-3.512 27.935l9.733 1.225c7.79.978 15.573 1.956 23.363 2.941l28.162 3.547 24.341 3.06 8.05 1.014c1.26.162 2.54.401 3.815.479.055 0 .113.009.161.021.943.119 1.76-.893 1.76-1.759 0-1.048-.81-1.64-1.76-1.759l-9.732-1.224c-7.79-.979-15.573-1.957-23.363-2.942l-28.162-3.546-24.341-3.061-8.05-1.014c-1.26-.162-2.541-.4-3.815-.478a.669.669 0 01-.162-.022c-.942-.118-1.759.894-1.759 1.76 0 1.048.81 1.639 1.76 1.759zM75.98 165.29l9.732 1.224c7.79.978 15.573 1.956 23.363 2.942L137.236 173l24.342 3.061 8.05 1.013c1.26.162 2.54.402 3.814.479.056 0 .113.009.162.021.943.12 1.76-.893 1.76-1.759 0-1.048-.81-1.64-1.76-1.759l-9.732-1.224c-7.79-.979-15.573-1.957-23.363-2.942l-28.163-3.546-24.34-3.061-8.051-1.014c-1.26-.162-2.54-.4-3.814-.478a.658.658 0 01-.162-.022c-.943-.118-1.76.894-1.76 1.76 0 1.048.817 1.639 1.76 1.759z" id="prefix__path844" stroke-width="1"/><g id="prefix__prefix__XMLID_3_" transform="matrix(.7037 0 0 .70369 -84.022 -125.875)" stroke-width="1.421"><path class="prefix__prefix__st0" d="M335.49 271.45V539.7l-229.14-.68-1.07-267.57zm-14.03 211.23l-.27-198.26-202.46-.12v198.38z" id="prefix__path846" stroke-width="1.421"/><path class="prefix__prefix__st1" d="M105.28 271.45l1.07 267.57 229.14.68V271.45z" id="prefix__path848"/><path class="prefix__prefix__st1" d="M118.73 284.3l202.46.12.27 198.26H118.73z" id="prefix__path850"/></g><path d="M-.472 74.183l142.473.09.19 139.506H-.473z" id="prefix__path853" stroke-width="1"/><path class="prefix__prefix__st0" d="M21.322 102.78h86.274c3.976 0 7.98.127 11.956 0h.162c2.266 0 2.266-3.518 0-3.518H33.44c-3.976 0-7.98-.127-11.956 0h-.162c-2.266 0-2.266 3.518 0 3.518zm0 28.155h86.274c3.976 0 7.98.126 11.956 0h.162c2.266 0 2.266-3.519 0-3.519H33.44c-3.976 0-7.98-.126-11.956 0h-.162c-2.266 0-2.266 3.519 0 3.519zm0 28.147h86.274c3.976 0 7.98.127 11.956 0h.162c2.266 0 2.266-3.518 0-3.518H33.44c-3.976 0-7.98-.127-11.956 0h-.162c-2.266 0-2.266 3.518 0 3.518zm0 28.155h86.274c3.976 0 7.98.126 11.956 0h.162c2.266 0 2.266-3.519 0-3.519H33.44c-3.976 0-7.98-.126-11.956 0h-.162c-2.266 0-2.266 3.519 0 3.519z" id="prefix__path855" stroke-width="1"/></svg>