<?xml version="1.0" encoding="UTF-8" standalone="no"?>
<svg
   viewBox="0 0 512 512"
   version="1.1"
   id="svg828"
   sodipodi:docname="puzzle.svg"
   inkscape:version="1.1 (c4e8f9e, 2021-05-24)"
   xmlns:inkscape="http://www.inkscape.org/namespaces/inkscape"
   xmlns:sodipodi="http://sodipodi.sourceforge.net/DTD/sodipodi-0.dtd"
   xmlns="http://www.w3.org/2000/svg"
   xmlns:svg="http://www.w3.org/2000/svg">
  <defs
     id="defs832" />
  <sodipodi:namedview
     id="namedview830"
     pagecolor="#ffffff"
     bordercolor="#666666"
     borderopacity="1.0"
     inkscape:pageshadow="2"
     inkscape:pageopacity="0.0"
     inkscape:pagecheckerboard="0"
     showgrid="false"
     inkscape:zoom="1.5214844"
     inkscape:cx="255.67137"
     inkscape:cy="256"
     inkscape:window-width="1792"
     inkscape:window-height="993"
     inkscape:window-x="0"
     inkscape:window-y="25"
     inkscape:window-maximized="1"
     inkscape:current-layer="svg828" />
  <style
     id="style824">
    path {
      fill: #4dacff;
    }
  </style>
  <path
     d="m 123.28598,416.19956 c -16.6075,-16.3316 -20.1391,-39.6645 -7.8907,-52.1195 14.9831,-15.2355 29.689,-0.1176 40.7399,-11.3553 6.2186,-6.3234 6.1338,-16.4806 -0.2088,-22.7178 l -63.705003,-62.6487 c -8.302,-8.1637 -8.4132,-21.5168 -0.2495,-29.818 l 33.098703,-33.6568 c 6.2187,-6.3234 16.3752,-6.4082 22.7178,-0.1711 11.51,11.3189 -3.8851,25.7519 11.3367,40.7214 12.4544,12.2477 35.7865,8.7168 52.1196,-7.8914 16.3316,-16.6067 19.4719,-39.9958 7.0176,-52.2435 -15.2355,-14.9831 -29.6862,0.3785 -40.9239,-10.6725 -6.3241,-6.2193 -6.4089,-16.3758 -0.1711,-22.7184 l 62.6481,-63.705102 c 8.1637,-8.3019 21.5175,-8.4131 29.818,-0.2494 l 63.7057,62.648702 c 6.3427,6.2372 6.4232,16.3987 0.2089,22.7178 -10.9455,11.1293 -25.7711,-3.8666 -40.74,11.3553 -12.2434,12.45 -8.6932,35.8107 7.8907,52.1195 16.5839,16.3088 40.4235,19.8839 52.6669,7.4338 14.9831,-15.2354 -0.3785,-29.6869 10.6725,-40.9246 6.2143,-6.3184 15.9524,-6.8237 22.2951,-0.5865 l 33.6568,33.098 c 8.3012,8.1637 7.9897,21.1012 -0.1732,29.4025 l -62.6495,63.7057 c -5.4097,7.1559 -5.7475,16.8961 0.5944,23.1333 11.1301,10.9454 25.7027,-4.2964 40.9246,10.6725 12.4543,12.2483 8.8914,35.2212 -7.4409,51.8287 -16.3324,16.6074 -39.6652,20.139 -51.6969,8.3069 -15.2354,-14.9831 -0.1176,-29.689 -11.3553,-40.74 -6.3191,-6.215 -16.4856,-6.1295 -22.6992,0.1896 l -33.0987,33.6568 c -8.1637,8.3013 -21.5161,8.4132 -29.3947,0.665 l -33.6568,-33.0987 c -6.3191,-6.2136 -16.4856,-6.1288 -22.6992,0.1903 -10.9455,11.1293 4.2964,25.7027 -10.6725,40.9238 -12.2626,12.4316 -36.1022,8.8565 -52.6854,-7.4523 z"
     id="path826"
     style="stroke-width:1" />
</svg>
