<svg width="136.063" height="136.063" viewBox="0 0 36 36" xmlns="http://www.w3.org/2000/svg"><g transform="translate(-75.55 -113.112)" paint-order="stroke markers fill" fill="#232323"><path d="M82.77 119.839a1.218 1.217 0 00-1.22 1.22v1.054a1.218 1.217 0 001.22 1.22h21.559a1.218 1.217 0 001.22-1.22v-1.055a1.218 1.217 0 00-1.22-1.22zm0 5.33a1.218 1.217 0 00-1.22 1.219v14.777a1.218 1.216 0 001.22 1.22h4.611a1.217 1.216 0 001.22-1.22v-14.777a1.218 1.216 0 00-1.22-1.22zm8.474 0a1.218 1.217 0 00-1.22 1.219v10.846a1.218 1.216 0 001.22 1.219h4.611a1.218 1.216 0 001.22-1.22v-10.845a1.218 1.217 0 00-1.22-1.22zm8.358 0a1.218 1.217 0 00-1.22 1.219v12.752a1.218 1.216 0 001.22 1.22h4.612a1.218 1.216 0 001.22-1.22v-12.752a1.218 1.217 0 00-1.22-1.22z" stroke="#000"/></g></svg>