<?xml version="1.0" standalone="no"?>
<!DOCTYPE svg PUBLIC "-//W3C//DTD SVG 20010904//EN"
 "http://www.w3.org/TR/2001/REC-SVG-20010904/DTD/svg10.dtd">
<svg version="1.0" xmlns="http://www.w3.org/2000/svg"
 width="1440.000000pt" height="1440.000000pt" viewBox="0 0 1440.000000 1440.000000"
 preserveAspectRatio="xMidYMid meet">
<metadata>
Created by potrace 1.14, written by Peter Selinger 2001-2017
</metadata>
<g transform="translate(0.000000,1440.000000) scale(0.100000,-0.100000)"
fill="#000000" stroke="none">
<path d="M6034 11590 c-99 -22 -187 -99 -225 -199 l-22 -56 -2 -2835 c-1
-1559 -5 -2853 -8 -2875 -4 -22 -9 -56 -12 -75 -13 -99 -58 -236 -111 -342
-124 -246 -346 -463 -584 -570 -36 -16 -74 -33 -85 -38 -170 -78 -499 -106
-701 -59 -27 6 -60 13 -73 15 -14 3 -68 21 -120 41 -440 163 -754 562 -806
1023 -10 86 -5 260 10 330 2 14 7 39 10 55 8 52 41 157 70 225 114 270 331
498 602 634 40 20 79 36 88 36 8 0 15 4 15 10 0 5 3 9 8 8 4 -1 39 7 77 19
156 48 233 55 680 57 411 2 421 2 465 24 53 26 85 70 95 132 4 25 8 333 8 686
0 570 -2 647 -17 691 -31 95 -96 132 -251 142 -126 9 -823 6 -890 -3 -27 -4
-70 -9 -95 -12 -436 -48 -945 -240 -1305 -493 -156 -109 -156 -109 -279 -216
-439 -380 -764 -904 -907 -1460 -12 -44 -23 -89 -25 -100 -2 -11 -10 -54 -19
-95 -13 -67 -20 -113 -30 -190 -23 -176 -23 -572 1 -694 2 -12 6 -41 9 -66 3
-25 7 -56 10 -70 3 -14 7 -40 10 -57 3 -18 14 -70 26 -115 11 -46 22 -93 25
-105 2 -12 24 -82 48 -155 52 -157 133 -342 211 -480 30 -54 55 -103 55 -108
0 -4 3 -10 8 -12 4 -1 23 -28 42 -58 19 -30 38 -59 43 -65 4 -5 30 -40 56 -77
344 -477 889 -874 1451 -1056 88 -28 182 -55 187 -53 2 0 21 -6 43 -14 22 -8
43 -14 45 -14 5 1 32 -4 95 -16 73 -14 146 -27 178 -30 21 -2 73 -7 117 -12
97 -10 498 -9 575 1 158 21 214 29 305 48 314 63 650 192 915 351 72 44 242
157 250 167 3 3 21 17 40 30 49 33 151 121 244 210 43 41 83 80 90 86 6 6 39
42 74 81 326 367 541 778 667 1273 0 3 4 21 8 40 4 19 9 46 12 60 10 49 16 85
20 115 2 17 6 46 9 65 3 19 9 60 13 90 4 30 8 1373 8 2985 1 2776 0 2933 -17
2980 -23 67 -90 128 -166 152 -52 16 -112 17 -647 19 -324 0 -604 -2 -621 -6z"/>
<path d="M8185 11583 c-105 -36 -188 -131 -210 -238 -6 -33 -10 -259 -9 -606
1 -610 1 -611 63 -696 30 -42 108 -97 163 -115 23 -8 313 -12 948 -14 503 -1
920 -3 925 -3 6 -1 -12 -22 -40 -47 -27 -26 -97 -90 -154 -143 -57 -53 -118
-109 -135 -125 -17 -15 -60 -55 -96 -89 -135 -125 -179 -165 -305 -282 -71
-66 -142 -131 -156 -145 -15 -14 -49 -45 -76 -70 -27 -25 -103 -96 -170 -158
-66 -62 -130 -121 -142 -131 -12 -10 -74 -68 -139 -128 -64 -61 -130 -122
-147 -138 -16 -15 -79 -73 -139 -128 -281 -261 -309 -286 -318 -287 -4 0 -21
-21 -39 -46 -24 -36 -31 -57 -31 -93 0 -72 13 -92 160 -246 42 -45 158 -166
258 -270 99 -105 223 -235 275 -289 200 -211 305 -314 337 -330 19 -10 56 -19
83 -21 45 -3 63 4 172 59 115 59 217 102 262 110 11 2 38 9 60 14 316 84 685
18 982 -175 428 -279 641 -810 523 -1309 -81 -346 -310 -637 -640 -817 -61
-33 -245 -101 -300 -110 -26 -5 -73 -13 -125 -22 -39 -7 -270 -6 -315 0 -391
58 -730 278 -914 592 -43 74 -86 110 -143 119 -55 8 -88 -5 -283 -116 -85 -48
-171 -96 -190 -107 -50 -28 -96 -54 -360 -203 -129 -73 -250 -141 -268 -152
-150 -84 -181 -103 -210 -124 -70 -54 -85 -142 -38 -232 54 -106 214 -330 326
-457 63 -71 253 -259 315 -311 224 -187 477 -346 709 -445 39 -17 85 -37 101
-44 70 -31 323 -113 403 -130 133 -29 219 -45 259 -50 26 -3 57 -8 68 -10 140
-29 586 -26 805 5 191 27 487 102 615 155 17 7 62 25 100 40 87 35 318 149
355 175 16 11 31 20 34 20 10 0 213 137 281 189 346 267 648 628 835 1000 122
244 231 563 264 771 3 19 8 45 10 57 3 11 7 43 11 70 4 26 9 59 11 73 22 142
22 572 -1 688 -2 10 -6 43 -10 73 -5 44 -19 119 -40 219 -62 294 -194 615
-370 900 -63 101 -212 303 -286 385 -210 235 -476 452 -744 608 -69 40 -281
144 -354 173 -24 10 -24 10 23 55 27 24 65 60 85 79 39 36 233 216 280 259 85
78 239 221 270 251 21 19 86 80 146 135 60 55 141 130 180 166 38 36 97 91
130 121 33 30 72 66 86 79 365 335 407 378 434 444 l25 60 -3 645 c-2 645 -2
645 -24 691 -33 66 -92 125 -159 157 l-59 27 -2095 1 c-1766 1 -2101 -1 -2135
-13z"/>
</g>
</svg>
