<svg xmlns="http://www.w3.org/2000/svg" width="140" height="140" version="1.1" viewBox="0 0 24 23.64"><path fill="#535353" d="M9.238 19.753c-.087-.034-.12-.392-.12-1.322 0-1.271 0-1.274-.248-1.386-.161-.074-.992-.111-2.496-.111-1.938 0-2.254-.02-2.254-.144 0-.124.282-.144 1.97-.144 1.083 0 1.972-.037 1.972-.084 0-.048-.154-.202-.34-.343-.388-.298-.968-1.038-1.354-1.738-.413-1.204-.52-2.466-.124-3.663.122-.362.299-.788.392-.947.27-.447.219-.742-.213-1.261-.992-1.197-.843-3.267.298-4.132.633-.48 1.107-.628 2.095-.66.77.029 1.152-.009 1.817.505.298.236.25.532.469.538.88-.217 1.152-.238 2.233-.394 1.414-.192 3.422-.346 4.315.413 0 0-.361.023-.801.027-1.018.03-1.826.139-2.494.486-.982.514-2.12 1.534-2.037 1.777.017.055.29.194.603.303 2.526.886 3.79 2.539 3.787 4.954 0 .496-.047 1.076-.101 1.288-.329 1.31-1.132 1.95-1.82 2.858 0 .04 1.147.073 2.546.073 2.2 0 2.547.02 2.547.144 0 .124-.394.154-2.966.144l-2.668-.01c-.266.156-.72.372-1 .446-.248.06-.285.174-.285.676 0 .458-.04.745.055.975.171.049.605.028.836.026.29 0 .384.048.471.237-.025.614-.122.523-1.09.533-.675.007-.965-.036-.997-.124a8.597 8.597 0 0 1-.074-1.1c-.015-.538-.063-1.014-.102-1.056-.115-.111-1.735-.136-1.884-.012-.166.137-.21 1.303-.045 1.523.139-.037.333.082.772.067.575-.015.563-.124.598.34.07.486-.606.358-1.057.355a9.231 9.231 0 0 1-1.207-.057zm.628-13.216c.064-.064.116-.238.116-.387 0-.203-.016-.309-.202-.376a.468.468 0 0 0-.606.068c-.182.18-.199.534-.038.695.149.15.58.15.73 0zM4.12 19.29c0-.115.14-.145.672-.145.534 0 .674.03.674.145 0 .114-.14.143-.67.143-.54 0-.676-.03-.676-.144zm14.606-.338c0-.052.067-.094.146-.094.077 0 .141.042.141.094 0 .055-.064.099-.14.099-.083 0-.147-.044-.147-.098zm-12.491-.72c0-.114.138-.144.67-.144.536 0 .675.03.675.145 0 .113-.14.142-.673.142-.534 0-.672-.03-.672-.143z"/></svg>