<svg xmlns="http://www.w3.org/2000/svg" width="66" height="46"><path d="M3 41.924V38.32h60v1.79c0 .983-.018 1.96-.04 2.17-.088.864-.412 1.57-.986 2.149-.581.587-1.155.901-1.912 1.046-.236.046-4.44.053-28.669.053H3zm12.559-5.266c-3.43-.305-6.551-1.848-8.91-4.405-2.053-2.225-3.275-4.976-3.577-8.046-.061-.632-.051-2.067.02-2.72.494-4.568 3.055-8.405 7.134-10.691 1.076-.603 2.738-1.188 4.031-1.42 1.077-.191 1.156-.197 3.34-.215 2.366-.02 2.401-.016 2.96.263.239.12.38.226.613.46.355.36.524.632.656 1.053l.095.307.013 2.331.014 2.33H19.47c-1.384 0-2.638.017-2.842.038-1.14.118-1.529.194-2.157.422-2.503.91-4.218 3.036-4.584 5.683-.24 1.753.248 3.58 1.366 5.098.273.371.967 1.063 1.341 1.338a7.25 7.25 0 003.254 1.351c.428.063 1.527.062 1.924-.002 2.4-.385 4.318-1.808 5.322-3.947.31-.658.46-1.141.609-1.943.06-.334.067-1.048.087-10.49l.021-10.132.084-.272c.332-1.072 1.096-1.902 2.098-2.277.506-.189.605-.197 2.657-.215L30.585.54l-.012 11.786-.01 11.786-.083.567c-.337 2.316-1.047 4.193-2.26 5.975-2.365 3.472-6.028 5.624-10.221 6.006-.472.042-1.95.042-2.441-.002zm24.46.017a13.293 13.293 0 01-1.976-.34c-2.6-.659-4.819-2.14-6.55-4.368-.22-.285-.757-1.097-.757-1.146 0-.024 4.935-2.899 5.057-2.946.016-.006.091.09.167.215.714 1.176 2.102 2.174 3.546 2.55 1.698.44 3.402.138 4.916-.874.862-.576 1.51-1.335 1.993-2.332.265-.549.393-.915.515-1.472.122-.556.123-1.716.003-2.283-.27-1.284-.928-2.47-1.826-3.292a6.316 6.316 0 00-2.986-1.509c-.603-.12-1.638-.12-2.226.001a6.5 6.5 0 00-1.494.501c-.215.101-.404.177-.419.168-.05-.03-3.944-4.21-3.956-4.244-.006-.019 2.099-2.007 4.679-4.419 3.401-3.179 4.69-4.407 4.69-4.465v-.08l-4.707-.01-4.708-.01.01-2.915L34 .49l7.773-.01c8.49-.01 8.034-.022 8.586.203.81.329 1.465 1.081 1.703 1.959.078.284.083.4.098 2.001l.016 1.7-3.73 3.486c-2.452 2.292-3.733 3.515-3.741 3.57-.01.073.021.094.245.168.66.216 1.612.666 2.266 1.07 2.928 1.81 4.933 4.755 5.515 8.099.136.778.17 1.176.17 2.037 0 .87-.039 1.352-.17 2.113-.55 3.179-2.408 6.018-5.128 7.83-1.488.993-3.032 1.585-4.886 1.875-.386.06-.714.079-1.529.088a26.12 26.12 0 01-1.17-.004zm15.735-18.09V.472h2.015c2.172 0 2.291.009 2.85.204.827.29 1.596.984 2.017 1.822.147.294.28.794.324 1.222.026.258.04 5.672.04 16.68v16.298h-7.246z"/></svg>