<?xml version="1.0" encoding="UTF-8" standalone="no"?>
<svg
   width="128"
   height="128"
   viewbox="0 0 128 128"
   version="1.1"
   id="svg188"
   xmlns="http://www.w3.org/2000/svg"
   xmlns:svg="http://www.w3.org/2000/svg">
  <defs
     id="defs192" />
  <style
     id="style182">@media (prefers-color-scheme: dark) { :root { fill: #ffffff; } }</style>
  <rect
     style="fill:#ffffff;fill-opacity:1;fill-rule:evenodd;stroke:#ffffff;stroke-width:2;stroke-linecap:round;stroke-linejoin:round;stroke-opacity:1"
     id="rect4301"
     width="129.22281"
     height="129.60287"
     x="-0.38006708"
     y="0" />
  <g
     fill="#fff"
     fill-rule="evenodd"
     stroke="#000"
     stroke-linecap="round"
     stroke-linejoin="round"
     stroke-opacity="1"
     stroke-width="1.28119"
     id="g186"
     style="fill:#0074d8;fill-opacity:1;stroke:#0074d8;stroke-opacity:1"
     transform="matrix(0.78262612,0,0,0.78154512,13.911537,13.981078)">
    <path
       stroke-dasharray="none"
       stroke-width="2.55727"
       d="m 23.256,235.216 c -1.362,-0.036 -2.246,0.984 -2.246,2.266 v 56.253 h 0.023 l -0.023,0.2 v 0.145 h -0.017 c -0.193,7.462 -6.355,13.417 -13.903,13.436 -7.7,0 -13.943,-6.174 -13.943,-13.79 0,-7.615 6.243,-13.789 13.943,-13.789 0.71,-0.021 5.427,-0.02 5.888,-0.017 1.986,0.011 1.91,0.037 1.942,-1.724 v -11.202 c -0.01,-1.763 -0.207,-1.794 -1.674,-1.895 -0.664,-0.046 -5.48,-0.069 -6.156,-0.069 -16.025,0 -29.017,12.848 -29.017,28.697 0,15.848 12.992,28.696 29.017,28.696 16.026,0 29.018,-12.848 29.018,-28.696 0,-0.418 -0.014,-0.832 -0.032,-1.246 0,0 -0.087,-53.299 0,-54.85 0.087,-1.55 -0.121,-2.415 -2.53,-2.409 -3.457,0.008 -9.338,0.018 -10.29,-0.007 z m 22.214,0 c -1.339,-0.033 -2.219,0.95 -2.219,2.212 0,0 0.03,9.124 0,10.46 -0.03,1.335 0.943,2.233 2.23,2.233 h 20.207 c 0.955,-0.02 0.963,-0.069 0.271,0.573 L 44.615,270.49 c -1.603,1.384 -1.716,1.165 -0.247,2.703 l 8.11,8.509 c 1.137,1.19 1.318,0.833 2.398,0.223 a 14.068,14.068 0 0 1 6.64,-1.69 c 7.7,0 13.943,6.174 13.943,13.79 0,7.615 -6.243,13.788 -13.943,13.788 A 13.97,13.97 0 0 1 49.732,301.399 C 49.079,300.118 49,300.253 47.741,300.964 l -10.517,5.94 c -1.333,0.698 -1.206,0.885 -0.561,1.942 a 29.068,29.068 0 0 0 24.853,13.875 c 15.77,0 28.593,-12.445 28.998,-27.944 v -1.22 c -0.199,-12.204 -8.09,-22.555 -19.097,-26.507 -0.884,-0.254 -0.744,-0.291 -0.092,-0.896 l 16.658,-15.45 c 0.785,-0.699 0.849,-1.103 0.847,-1.919 -0.007,-2.864 -0.023,-10.256 0.003,-11.334 0.032,-1.341 -0.958,-2.236 -2.25,-2.236 0,0 -39.774,0.032 -41.113,0 z"
       paint-order="normal"
       transform="translate(29.707,-214.968)"
       id="path184"
       style="fill:#0074d8;fill-opacity:1;stroke:#0074d8;stroke-opacity:1" />
  </g>
</svg>
