<svg width="292" height="278" viewBox="0 0 292 278" fill="none" xmlns="http://www.w3.org/2000/svg">
<path d="M64.9389 194.357C47.0027 178.925 33.4474 152.029 31.1514 127.315C30.6391 121.8 30.7222 121.464 33.4448 118.025C34.9986 116.062 39.4377 111.888 43.3095 108.748L50.3492 103.039L52.062 91.8864C54.6553 74.9998 56.6511 68.5761 63.2259 55.9532C66.5563 49.5593 72.8534 43.297 80.7912 38.485C101.145 26.1465 126.402 24.89 147.368 35.1727C156.987 39.8899 161.168 44.2637 169.49 58.3107C176.792 70.6373 179.185 73.593 184.9 77.346C190.51 81.0293 197.301 83.3171 219.645 89.0514C230.506 91.8386 242.352 95.3342 245.97 96.8194C255.415 100.696 268.565 109.423 274.191 115.547C277.887 119.57 286.366 130.776 286.62 131.973C286.661 132.166 281.201 128.701 274.488 124.275C260.403 114.988 256.061 113.136 238.957 109.12C211.519 102.677 191.481 102.484 177.278 108.525C171.75 110.876 169.152 113.822 170.034 116.74C170.334 117.731 172.08 121.663 173.916 125.477C182.514 143.347 188.286 164.218 189.264 180.968C189.54 185.695 189.25 193.769 188.62 198.91L187.475 208.257L181.107 211.74C165.762 220.132 147.511 224.81 132.543 224.188C121.726 223.738 108.612 220.275 97.3593 214.896C88.284 210.557 71.1587 199.708 64.9389 194.357ZM139.393 84.7849C144.795 85.3462 149.347 80.8651 148.647 75.6753C148.369 73.6115 147.455 72.1586 145.341 70.419C142.756 68.2923 141.995 68.0802 138.746 68.581C135.729 69.0463 134.753 69.6415 133.272 71.9199C129.876 77.1461 133.204 84.1419 139.393 84.7849Z" fill="white"/>
</svg>
