<svg width="300mm" height="300mm" viewBox="0 0 300 300" xmlns="http://www.w3.org/2000/svg"><path d="M118.476 238.408c-.65-.445-.764-1.322-.265-2.035.415-.593.831-.704 2.636-.704 1.178 0 2.142-.12 2.142-.267 0-.31 4.94-23.226 5.191-24.08l-69.206-.76c-4.77-.752-7.947-4.194-8.314-8.646l.173-134.679c-.115-9.337.1-9.344 8.141-9.314h183.234c8.123.054 8.177.035 8.14 9.314.521 48.645.25 79.603.173 134.679-1.252 7.56-5.675 7.82-9.356 8.49l-68.365.322 5.281 24.012c.18.854.3.906 2.356.998 1.75.079 2.254.229 2.617.778.383.58.374.79-.063 1.413l-.513.733-64.002-.255z"/><path d="M63.184 129.014l-.003-2.557c.873-.028 1.84-.257 2.68-.07.08.077.123 1.675.095 3.55l-.051 3.412c-2.668-.151-2.732-2.335-2.721-4.335z" fill="#ff851b" paint-order="stroke markers fill"/><path d="M65.81 123.82c-.814-.478-1.574-.538-2.535-.734l-.103-6.072c.824.276 2.232-.472 2.74-.143z" fill="#b10dc9" paint-order="stroke markers fill"/><path d="M63.181 113.821v-5.958c1.055-.145 1.874-.214 2.817-.471l-.14 6.978c-.861-.393-1.848-.538-2.677-.549z" fill="#2ecc40" paint-order="stroke markers fill"/><path d="M65.529 104.806c-.802-.264-1.468-.188-2.348-.188v-6.151c.782-.093 1.57-.152 2.348-.27z" fill="#ffdc00" paint-order="stroke markers fill"/><path d="M63.181 95.227v-6.003c.913-.135 1.886-.487 2.665-.454.192.118.203 6.838.012 6.82-.87-.34-1.893-.352-2.677-.363z" fill="#39cccc" paint-order="stroke markers fill"/><path d="M63.181 86.024c.033-1.249-.207-6.145.715-6.198 2.102-.888 1.363-.514 2.102-.888l-.082 7.462z" fill="#0074d9" paint-order="stroke markers fill"/><path d="M63.181 72.677V70.06h2.817c-.137 2.357.195 4.774-.046 7.119-3.017-1.341-2.765-1.917-2.77-4.502z" fill="#ff4136" paint-order="stroke markers fill"/><path d="M65.753 142.417c-.878-.35-1.573-.235-2.572-.235v-2.617c.132-3.504-.114-3.51 2.762-4.263l-.19 7.115z" fill="#fff" paint-order="stroke markers fill"/><path d="M54.476 66.904s-.442-5.953 4.778-5.71c5.22.244 90.972 0 90.972 0 89.955 0 86.253-.516 91.256-.169 5.44.028 5.335.091 5.452 4.915V179.3H54.237zm186.304 105.65c.56-.883-.078-104.729-.078-104.729H60.468s-.644 103.836-.096 104.698zM58.162 206.374c-5.32-3.486-5.469-3.684 1.36-1.846 5.534.093 91.063-.143 91.063-.143s86.087.13 91.28 0c3.467-.086 5.833-2.651 3.462.204-4.24 3.659 5.275 2.684-94.609 2.663-89.011-.02-86.73 1.192-92.556-.878zM131.663 210.823h37.844c1.799 8.184 3.78 17.17 5.402 24.42h-48.648c1.93-8.614 3.525-15.886 5.402-24.42z" fill="#ddd" paint-order="stroke markers fill"/><path d="M90.493 79.563c1.735.123 1.7-2.99-.106-3.003l-14.37.134c-1.87-.047-1.777 3.136-.036 3.12z" fill="#ff4136" paint-order="stroke markers fill"/><path d="M146.145 88.772c2.032.254 2.086-2.621.091-2.685l-45.014-.05c-2.136-.205-2.11 2.842-.066 2.828z" fill="#2ecc40" paint-order="stroke markers fill"/><path d="M97.253 88.872c1.873.002 1.734-2.964.156-2.968l-17.806.127c-2.136-.08-2.058 2.617.004 2.82z" fill="#0074d9" paint-order="stroke markers fill"/><path d="M202.848 98.139c1.168-.092.821-2.203-.13-2.206l-14.515-.037c-1.384-.004-1.235 2.092-.283 2.19z" fill="#b10dc9" paint-order="stroke markers fill"/><path d="M184.038 98.206c1.353.005 1.415-2.256-.032-2.276l-41.575-.005c-1.594-.025-1.948 2.21-.393 2.26z" fill="#39cccc" paint-order="stroke markers fill"/><path d="M136.868 98.36c2.148-.006 2.312-2.716-.1-2.773l-54.832-.182c-1.706-.038-1.754 3.007.29 3.086z" fill="#ffdc00" paint-order="stroke markers fill"/><path d="M158.27 104.802l-72.14.062c-1.627.008-1.619 2.76-.091 2.69l72.205-.024c1.584.007 1.907-2.725.026-2.729z" fill="#fff" paint-order="stroke markers fill"/><path d="M146.058 116.4c1.396.124 1.644-2.236-.098-2.301l-47.98.006c-1.43.082-1.406 2.289-.242 2.355z" fill="#ff851b" paint-order="stroke markers fill"/><path d="M93.85 116.566c1.296-.049 1.13-2.568.02-2.57l-10.773-.014c-1.298-.002-1.32 2.533-.14 2.513z" fill="#0074d9" paint-order="stroke markers fill"/><path d="M184.521 125.874c1.28.052 1.304-1.828.025-1.884l-23.78.044c-1.587-.012-1.543 1.996-.34 2.039z" fill="#ff851b" paint-order="stroke markers fill"/><path d="M156.285 126.073c1.379-.074 1.284-2.055-.142-2.067l-29.394-.09c-1.748-.005-1.797 2.178-.477 2.188z" fill="#2ecc40" paint-order="stroke markers fill"/><path d="M121.917 125.874c1.55.028 1.738-2.063-.026-2.096l-35.818.044c-1.505-.044-1.498 2.236-.13 2.229z" fill="#b10dc9" paint-order="stroke markers fill"/><path d="M158.355 135.84c1.582-.097 1.662-2.519-.288-2.67l-17.198.01c-1.763-.028-1.709 2.459.17 2.643 0 0 15.684.367 17.316.018z" fill="#ff851b" paint-order="stroke markers fill"/><path d="M131.806 135.747c1.352-.003 1.714-2.523-.142-2.503l-50.04-.052c-1.484-.066-1.5 2.624-.081 2.651z" fill="#ffdc00" paint-order="stroke markers fill"/><path d="M177.699 144.94c1.174.006 1.158-2.505.105-2.512l-5.539-.037c-1.56-.01-1.1 2.516.141 2.522z" fill="#0074d9" paint-order="stroke markers fill"/><path d="M168.012 145.164c1.715-.135 1.416-2.886-.142-2.879l-45.054-.075c-1.539-.003-1.637 2.56.226 2.575z" fill="#fff" paint-order="stroke markers fill"/><path d="M119.07 144.667c1.231-.042 1.14-2.385.057-2.384l-36.387.006c-1.49 0-1.422 2.375-.283 2.445z" fill="#39cccc" paint-order="stroke markers fill"/><path d="M106.667 154.65c2.603-.01 2.676-3.42.111-3.474l-26.604-.03c-2.053.141-1.9 3.66.446 3.611z" fill="#b10dc9" paint-order="stroke markers fill"/><path d="M89.535 163.815c1.983.15 2.316-2.777.132-2.774l-13.143-.104c-1.696-.013-1.759 2.908-.191 2.97z" fill="#ff4136" paint-order="stroke markers fill"/><path d="M58.456 200.356c-3.751-1.956-4.22-3.182-4.22-11.045v-6.46H246.935l-.023 14.687c-.265 3.512-.18 3.642-4.992 3.517l-91.066-.003c-81.714-.002-91.203-.074-92.397-.696z" fill="#aaa" paint-order="stroke markers fill"/><ellipse cx="150.591" cy="191.997" rx="3.206" ry="3.143" paint-order="stroke markers fill"/></svg>