<?xml version="1.0" encoding="UTF-8" standalone="no"?>
<svg
   xmlns:dc="http://purl.org/dc/elements/1.1/"
   xmlns:cc="http://creativecommons.org/ns#"
   xmlns:rdf="http://www.w3.org/1999/02/22-rdf-syntax-ns#"
   xmlns:svg="http://www.w3.org/2000/svg"
   xmlns="http://www.w3.org/2000/svg"
   xmlns:sodipodi="http://sodipodi.sourceforge.net/DTD/sodipodi-0.dtd"
   xmlns:inkscape="http://www.inkscape.org/namespaces/inkscape"
   width="140"
   height="140"
   viewBox="0 0 24 23.64"
   version="1.1"
   id="svg837"
   sodipodi:docname="apt.svg"
   inkscape:version="1.0.1 (c497b03c, 2020-09-10)">
  <metadata
     id="metadata843">
    <rdf:RDF>
      <cc:Work
         rdf:about="">
        <dc:format>image/svg+xml</dc:format>
        <dc:type
           rdf:resource="http://purl.org/dc/dcmitype/StillImage" />
      </cc:Work>
    </rdf:RDF>
  </metadata>
  <defs
     id="defs841" />
  <sodipodi:namedview
     pagecolor="#ffffff"
     bordercolor="#666666"
     borderopacity="1"
     objecttolerance="10"
     gridtolerance="10"
     guidetolerance="10"
     inkscape:pageopacity="0"
     inkscape:pageshadow="2"
     inkscape:window-width="1792"
     inkscape:window-height="995"
     id="namedview839"
     showgrid="false"
     inkscape:zoom="6.1814993"
     inkscape:cx="70.84244"
     inkscape:cy="47.273287"
     inkscape:window-x="0"
     inkscape:window-y="25"
     inkscape:window-maximized="0"
     inkscape:current-layer="svg837" />
  <rect
     width="24"
     height="24"
     rx="2"
     ry="2"
     fill="#f9fdfd"
     paint-order="stroke markers fill"
     y="-.182"
     id="rect833" />
  <path
     d="m 9.238,19.753 c -0.087,-0.034 -0.12,-0.392 -0.12,-1.322 0,-1.271 0,-1.274 -0.248,-1.386 -0.161,-0.074 -0.992,-0.111 -2.496,-0.111 -1.938,0 -2.254,-0.02 -2.254,-0.144 0,-0.124 0.282,-0.144 1.97,-0.144 1.083,0 1.972,-0.037 1.972,-0.084 0,-0.048 -0.154,-0.202 -0.34,-0.343 C 7.334,15.921 6.754,15.181 6.368,14.481 5.955,13.277 5.848,12.015 6.244,10.818 6.366,10.456 6.543,10.03 6.636,9.871 6.906,9.424 6.855,9.129 6.423,8.61 5.431,7.413 5.58,5.343 6.721,4.478 7.354,3.998 7.828,3.85 8.816,3.818 9.586,3.847 9.9683984,3.8089919 10.633398,4.3229919 10.930682,4.5591351 10.883,4.855 11.102,4.861 c 0.879427,-0.2171411 1.151575,-0.2375705 2.233,-0.394 1.413696,-0.1915974 3.422283,-0.3456001 4.315,0.4131422 0,0 -0.361408,0.023185 -0.801408,0.027185 C 15.830592,4.937327 15.023,5.046 14.355,5.393 c -0.982,0.514 -2.12,1.534 -2.037,1.777 0.017,0.055 0.29,0.194 0.603,0.303 2.526,0.886 3.79,2.539 3.787,4.954 0,0.496 -0.047,1.076 -0.101,1.288 -0.329,1.31 -1.132,1.95 -1.82,2.858 0,0.04 1.147,0.073 2.546,0.073 2.2,0 2.547,0.02 2.547,0.144 0,0.124 -0.394,0.154 -2.966,0.144 l -2.668,-0.01 c -0.266,0.156 -0.72,0.372 -1,0.446 -0.248,0.06 -0.285,0.174 -0.285,0.676 0,0.458 -0.0398,0.745411 0.05479,0.975213 0.17156,0.04845 0.605639,0.02736 0.836213,0.02579 0.29,0 0.384,0.048 0.471,0.237 -0.02481,0.614411 -0.122207,0.523399 -1.09,0.533 -0.674967,0.0067 -0.965,-0.036 -0.997,-0.124 -0.04818,-0.364706 -0.07289,-0.732128 -0.074,-1.1 -0.015,-0.538 -0.063,-1.014 -0.102,-1.056 -0.115,-0.111 -1.734802,-0.136006 -1.883802,-0.01201 -0.166,0.137 -0.2110026,1.302811 -0.045,1.522811 0.1384,-0.03721 0.332802,0.0822 0.771802,0.0672 0.575157,-0.01465 0.563133,-0.123607 0.598,0.34 0.06927,0.485793 -0.60638,0.357902 -1.057,0.355 -0.403146,0.0074 -0.8063413,-0.01168 -1.207,-0.057 z M 9.866,6.537 C 9.93,6.473 9.982,6.299 9.982,6.15 9.982,5.947 9.9664065,5.8413984 9.7804065,5.7743984 9.5800243,5.6493984 9.35,5.666 9.174,5.842 8.992,6.022 8.975,6.376 9.136,6.537 c 0.149,0.15 0.58,0.15 0.73,0 z M 4.12,19.29 c 0,-0.115 0.14,-0.145 0.672,-0.145 0.534,0 0.674,0.03 0.674,0.145 0,0.114 -0.14,0.143 -0.67,0.143 -0.54,0 -0.676,-0.03 -0.676,-0.144 z m 14.606,-0.338 c 0,-0.052 0.067,-0.094 0.146,-0.094 0.077,0 0.141,0.042 0.141,0.094 0,0.055 -0.064,0.099 -0.14,0.099 -0.083,0 -0.147,-0.044 -0.147,-0.098 z M 6.235,18.232 c 0,-0.114 0.138,-0.144 0.67,-0.144 0.536,0 0.675,0.03 0.675,0.145 0,0.113 -0.14,0.142 -0.673,0.142 -0.534,0 -0.672,-0.03 -0.672,-0.143 z"
     fill="#535353"
     id="path835"
     sodipodi:nodetypes="cscssssccccccccccccccccccsscccscccsccccccccccsscccscsssccsssssssssss" />
</svg>
