<?xml version="1.0" encoding="UTF-8" standalone="no"?>
<svg
   xmlns:dc="http://purl.org/dc/elements/1.1/"
   xmlns:cc="http://creativecommons.org/ns#"
   xmlns:rdf="http://www.w3.org/1999/02/22-rdf-syntax-ns#"
   xmlns:svg="http://www.w3.org/2000/svg"
   xmlns="http://www.w3.org/2000/svg"
   xmlns:sodipodi="http://sodipodi.sourceforge.net/DTD/sodipodi-0.dtd"
   xmlns:inkscape="http://www.inkscape.org/namespaces/inkscape"
   width="140"
   height="140"
   viewBox="0 0 37.041684 37.041568"
   version="1.1"
   id="svg839"
   sodipodi:docname="b2ntp.svg"
   inkscape:version="1.0.1 (c497b03c, 2020-09-10)">
  <metadata
     id="metadata845">
    <rdf:RDF>
      <cc:Work
         rdf:about="">
        <dc:format>image/svg+xml</dc:format>
        <dc:type
           rdf:resource="http://purl.org/dc/dcmitype/StillImage" />
      </cc:Work>
    </rdf:RDF>
  </metadata>
  <defs
     id="defs843" />
  <sodipodi:namedview
     pagecolor="#ffffff"
     bordercolor="#666666"
     borderopacity="1"
     objecttolerance="10"
     gridtolerance="10"
     guidetolerance="10"
     inkscape:pageopacity="0"
     inkscape:pageshadow="2"
     inkscape:window-width="1792"
     inkscape:window-height="1016"
     id="namedview841"
     showgrid="false"
     inkscape:zoom="2.8907836"
     inkscape:cx="154.52257"
     inkscape:cy="114.84101"
     inkscape:window-x="0"
     inkscape:window-y="23"
     inkscape:window-maximized="0"
     inkscape:current-layer="g837" />
  <g
     transform="translate(-75.014999,-112.85222)"
     paint-order="stroke markers fill"
     id="g837"
     style="fill:#232323;fill-opacity:1">
    <rect
       width="37.041683"
       height="37.041683"
       x="75.014999"
       y="112.852"
       fill="#fff"
       id="rect833"
       style="fill:#fffffc;fill-opacity:1;stroke-width:1" />
    <path
       d="m 79.724892,116.92145 a 1.5603318,1.5597401 0 0 0 -1.56373,1.56329 v 1.35226 a 1.5603318,1.5597401 0 0 0 1.56373,1.56313 h 27.622228 a 1.5603318,1.5597401 0 0 0 1.56373,-1.56313 v -1.35226 a 1.5603318,1.5597401 0 0 0 -1.56373,-1.56329 z m -3.27e-4,6.83204 a 1.5604938,1.5599017 0 0 0 -1.563732,1.56329 v 18.94479 a 1.5600079,1.5594161 0 0 0 1.563732,1.56298 h 5.908722 a 1.5596841,1.5590924 0 0 0 1.563412,-1.56282 v -18.94495 a 1.5600079,1.5594161 0 0 0 -1.563254,-1.56329 z m 10.857229,0 a 1.5604938,1.5599017 0 0 0 -1.563736,1.56329 v 13.90445 a 1.5600079,1.5594161 0 0 0 1.563736,1.56282 h 5.908569 a 1.5600079,1.5594161 0 0 0 1.563567,-1.56282 v -13.90445 a 1.5604938,1.5599017 0 0 0 -1.563567,-1.56329 z m 10.709876,0 a 1.5604938,1.5599017 0 0 0 -1.563751,1.56329 v 16.34847 a 1.5600079,1.5594161 0 0 0 1.563591,1.56281 h 5.90855 a 1.5600079,1.5594161 0 0 0 1.56359,-1.56281 v -16.34847 a 1.5604938,1.5599017 0 0 0 -1.56359,-1.56329 z"
       fill="#fff"
       stroke="#000000"
       stroke-width="0.999994"
       id="path835"
       style="fill:#232323;fill-opacity:1" />
  </g>
</svg>
