<svg xmlns="http://www.w3.org/2000/svg" width="460.8" height="460.8">
   <g fill="var(--primary)" stroke="#000" stroke-width="1.002">
      <path
         d="M38.928 374.352c-.418-.418-.418-46.766 0-47.184.42-.42 382.524-.42 382.944 0 .371.371.404 22.29.038 25.853-.833 8.12-5.34 14.989-12.3 18.743-2.167 1.169-4.732 2.087-7.091 2.539-1.503.288-28.275.337-182.532.337-140.28 0-180.836-.065-181.059-.288zm80.547-56.124c-26.56-2.363-50.915-16.749-65.599-38.748-8.372-12.544-13.3-26.355-14.774-41.4-.393-4.018-.33-13.145.12-17.302 2.76-25.488 15.889-48.11 36.498-62.887 2.247-1.612 5.282-3.542 8.16-5.19 7.742-4.437 18.458-8.32 27.317-9.902 6.855-1.224 7.34-1.255 21.33-1.37 12.812-.106 13.445-.09 15.28.374 6.229 1.575 10.667 5.836 12.543 12.04.535 1.768.545 2.035.631 16.755.067 11.28.019 15.041-.196 15.3-.24.29-2.712.342-16.233.342-8.931 0-16.972.106-18.271.24-5.51.57-7.015.79-9.281 1.351-9.82 2.435-18.258 8.095-24.643 16.529-7.392 9.764-10.095 23.26-7.162 35.76 3.196 13.623 13.698 25.509 26.885 30.431 5.098 1.903 9.629 2.685 15.48 2.671 5.411-.012 9.485-.702 14.52-2.458 13.144-4.586 23.952-16.512 27.337-30.164 1.413-5.697 1.306-.466 1.455-70.92l.136-64.44.549-1.784c2.624-8.522 8.693-14.247 17.234-16.257 2.394-.564 26.482-.786 26.927-.25.227.273.275 16.956.218 75.44l-.073 75.091-.524 3.6c-1.53 10.525-3.907 18.461-8.198 27.373-8.583 17.827-22.09 31.608-39.741 40.55-10.085 5.108-20.895 8.19-32.4 9.236-3.003.274-12.401.266-15.525-.012zm155.565.11c-8.685-.96-15.234-2.503-21.84-5.147-15.242-6.1-27.735-16.36-36.34-29.843-1.001-1.568-1.82-3.082-1.82-3.363 0-.425 2.804-2.13 16.552-10.067 11.113-6.416 16.693-9.51 16.982-9.419.238.075.78.72 1.205 1.43 2.105 3.52 6.907 8.413 10.865 11.074 6.24 4.194 13.086 6.229 20.876 6.206 6.923-.02 12.964-1.652 18.624-5.03 9.385-5.6 15.54-14.18 17.893-24.939.773-3.534.785-10.914.024-14.52-1.702-8.064-5.425-14.7-11.314-20.17-5.277-4.902-11.285-7.982-18.332-9.4-3.839-.772-10.42-.77-14.158.005-4.195.87-8.966 2.617-11.017 4.034-.689.476-.98.555-1.338.364-.473-.253-25.707-27.157-26.061-27.786-.122-.217-.06-.565.16-.9.197-.302 13.58-12.905 29.738-28.008l29.38-27.459-29.396-.061c-21.24-.044-29.486-.135-29.72-.33-.266-.22-.322-3.602-.32-19.138.003-11.473.094-19.012.232-19.231.2-.318 6.064-.368 49.976-.426 55.05-.072 51.454-.168 55.347 1.474 4.543 1.916 7.7 4.91 9.901 9.391 1.91 3.888 1.97 4.366 2.083 16.631.086 9.336.05 10.945-.257 11.4-.196.292-10.836 10.304-23.644 22.25-12.808 11.946-23.295 21.784-23.304 21.862-.009.078.442.278 1.003.445 3.146.934 10.664 4.532 14.731 7.05 12.265 7.592 21.906 18.239 28.24 31.185 5.494 11.228 7.936 21.615 7.94 33.778.005 8.8-1.043 15.64-3.618 23.64-7.82 24.29-26.503 42.55-51.193 50.04-7.26 2.201-12.127 2.91-20.64 3-3.63.04-6.978.03-7.44-.021zm99.408-.146c-.42-.42-.42-231.324 0-231.744.45-.45 25.695-.406 28.07.05 10.591 2.027 18.283 10.469 19.392 21.281.384 3.735.346 210.029-.038 210.413-.418.418-47.006.418-47.424 0z" />
      <path
         d="M38.99 374.1c-.062-.165-.086-10.776-.052-23.58L39 327.24h382.8l.07 11.52c.043 6.839-.032 12.61-.182 14.204-.536 5.669-2.58 10.297-6.223 14.083-3.69 3.836-7.719 6.06-12.706 7.016-2.478.474-363.588.511-363.768.037zm80.245-56.112c-21.81-1.94-42.067-11.927-56.98-28.09-11.687-12.667-19.482-28.748-22.151-45.698-1.501-9.532-1.418-20.686.224-29.893 4.07-22.832 16.715-42.852 35.632-56.416 10.156-7.282 22.909-12.694 34.997-14.852 6.877-1.228 7.315-1.255 21.57-1.37 13.005-.105 13.691-.088 15.501.37 5.907 1.493 10.312 5.709 12.082 11.563.535 1.77.545 2.025.631 16.876.064 10.964.014 15.166-.183 15.404-.222.268-3.554.343-18.794.423-19.756.103-19.948.113-24.884 1.365-10.912 2.767-20.762 10-26.647 19.57-6.869 11.17-8.314 24.919-3.91 37.2 2.245 6.262 5.498 11.345 10.376 16.216 4.77 4.763 9.567 7.875 15.621 10.135 5.03 1.877 9.627 2.683 15.24 2.669 5.18-.013 9.331-.727 14.28-2.458 13.551-4.739 24.342-16.625 27.817-30.642 1.413-5.697 1.306-.466 1.455-70.92l.136-64.44.542-1.758c2.267-7.354 7.367-12.725 14.351-15.115C189.233 87.07 190.291 87 203.28 87h12.36v74.88c0 59.58-.063 75.395-.309 77.4-1.063 8.673-2.874 16.098-5.621 23.04-12.44 31.44-40.76 52.614-74.47 55.68-3.005.273-12.881.265-16.005-.013zm155.565.11c-5.207-.573-8.625-1.16-12.56-2.158-18.696-4.74-34.96-16.506-45.38-32.832-1.92-3.008-1.912-2.992-1.636-3.425.294-.461 32.638-19.043 33.147-19.043.322 0 .753.46 1.343 1.43 2.246 3.697 6.712 8.261 10.686 10.922 5.23 3.5 10.383 5.415 16.893 6.276 7.541.997 16.082-.89 23.102-5.105 6.695-4.02 11.402-9.148 14.725-16.043 1.573-3.264 2.399-5.65 3.156-9.12.768-3.517.78-10.455.024-14.04-1.708-8.108-5.662-15.199-11.458-20.55-5.237-4.834-11.626-8.085-18.667-9.498-2.193-.44-3.477-.54-6.895-.535-4.675.007-7.459.441-11.583 1.81-2.474.82-6.5 2.645-6.758 3.062-.092.149-.37.271-.617.271-.644 0-26.282-27.465-26.282-28.156 0-.376 8.029-8.02 29.64-28.217 16.302-15.236 29.676-27.792 29.72-27.903.043-.111-13.294-.23-29.64-.263l-29.72-.061-.062-18.934c-.044-13.788.013-19.022.21-19.26.227-.273 8.376-.326 50.051-.326 54.636 0 51.341-.086 55.019 1.43 5.417 2.235 9.506 6.967 11.104 12.85.492 1.813.527 2.544.62 13.093l.098 11.172-23.643 22.068c-13.003 12.137-23.65 22.14-23.66 22.228-.01.088.55.345 1.243.57 2.205.719 6.446 2.554 9.423 4.079 21.122 10.818 36.089 31.157 40.174 54.59.871 5 1.075 7.493 1.077 13.2.004 10.65-1.626 19.357-5.407 28.877-9.18 23.112-29.942 40.69-54.327 45.995-5.63 1.224-8.31 1.496-15.48 1.57-3.762.038-7.218.027-7.68-.023zm99.712-.157c-.063-.165-.087-52.303-.053-115.861l.061-115.56 12.96-.073c14.016-.078 15.098-.01 18.55 1.164 3.65 1.24 6.515 3.106 9.435 6.142 3.643 3.787 5.688 8.417 6.222 14.083.173 1.844.23 35.166.183 106.484l-.07 103.8-23.587.061c-18.743.049-23.61 0-23.701-.24z" />
      <path
         d="M39.168 374.112c-.418-.418-.418-46.286 0-46.704.224-.224 43.044-.288 191.25-.288 166.649 0 191 .044 191.252.348.221.266.265 3.41.184 13.26-.114 14.034-.128 14.192-1.583 18.304-1.784 5.042-6.026 9.955-10.848 12.565-1.888 1.022-4.727 2.004-7.115 2.46-1.54.295-26.944.343-182.321.343-140.093 0-180.596-.065-180.819-.288zm80.547-56.124c-27.083-2.41-51.434-16.99-66.316-39.708-2.584-3.945-3.76-6.042-5.837-10.413-4.351-9.157-7.201-19.571-8.218-30.027-.388-3.994-.326-12.683.12-16.822 1.545-14.332 6.347-27.918 13.956-39.486 9.177-13.95 22.834-25.63 37.54-32.107 6.348-2.795 14.361-5.294 20.477-6.386 6.832-1.22 7.364-1.254 21.088-1.37 12.685-.107 13.192-.094 15.12.388 7.12 1.779 11.972 7.238 12.921 14.538.347 2.669.299 28.764-.054 29.117-.218.218-4.148.288-16.22.288-8.917 0-16.952.106-18.251.24-5.507.57-7.01.788-9.212 1.34-15.363 3.848-27.71 16.002-31.63 31.131-2.553 9.856-1.722 20.117 2.355 29.089 2.264 4.98 5.096 9.052 9.026 12.976 6.816 6.805 15.095 10.988 24.5 12.379 2.724.403 10.18.4 12.72-.005 7.441-1.187 13.645-3.814 19.92-8.436 7.482-5.51 13.634-14.729 15.931-23.874 1.42-5.648 1.312-.437 1.457-70.92l.132-64.44.651-2.073c1.305-4.153 2.843-6.827 5.484-9.531 3.27-3.348 6.823-5.32 11.57-6.42 2.487-.578 26.079-.814 26.533-.266.227.273.275 16.867.218 75.2l-.073 74.85-.524 3.6c-2.956 20.325-10.95 36.9-24.522 50.84-14.76 15.159-34.272 24.36-55.817 26.32-3.001.272-11.922.265-15.045-.013zm155.565.111c-7.127-.79-11.841-1.76-17.64-3.626-14.934-4.809-27.766-14.013-37.577-26.953-2.211-2.917-4.836-7.11-4.743-7.578.048-.24 6.408-4.058 16.04-9.628 8.778-5.076 16.176-9.315 16.44-9.42.729-.29 1.001-.087 1.929 1.44 4.421 7.28 13.222 13.703 21.838 15.942 10.68 2.775 21.491.979 30.642-5.09 5.821-3.862 9.887-8.561 13.033-15.066 2.865-5.924 3.556-9.032 3.578-16.08.013-4.345-.06-5.394-.525-7.609-1.607-7.641-5.779-15.042-11.368-20.167-5.13-4.705-11.574-8.005-18.264-9.353-3.853-.776-10.885-.778-14.613-.003-3.458.719-5.826 1.525-9.023 3.07-1.481.716-2.797 1.302-2.924 1.302-.128 0-5.99-6.161-13.027-13.691-8.825-9.443-12.796-13.855-12.796-14.217 0-.387 7.763-7.78 29.64-28.225 16.302-15.235 29.676-27.792 29.72-27.904.044-.112-13.245-.203-29.532-.203-22.712 0-29.68-.067-29.9-.288-.22-.219-.288-4.754-.288-18.946V87.147l.533-.373c.479-.336 5.6-.374 49.81-.374 54.262 0 50.798-.093 54.734 1.47 2.402.955 4.134 2.122 6.173 4.16 2.75 2.751 4.075 5.091 5.201 9.192.477 1.735.517 2.564.61 12.555l.1 10.697-.603.703c-.332.387-11.026 10.423-23.763 22.303-12.737 11.88-23.133 21.7-23.103 21.823.031.122.806.474 1.722.781 19.482 6.54 37.14 23.574 44.865 43.276 3.751 9.568 5.486 18.518 5.49 28.32.005 8.707-1.066 15.514-3.736 23.76-3.897 12.037-9.823 21.69-18.785 30.6-11.76 11.692-26.15 18.858-43.208 21.52-2.415.378-4.558.504-9.48.56-3.498.04-6.738.03-7.2-.02zm99.408-.147c-.42-.42-.42-230.844 0-231.264.454-.454 25.218-.405 27.62.054 5.442 1.042 9.297 3.19 13.265 7.394 2.872 3.043 4.613 6.432 5.785 11.258.408 1.68.432 6.915.498 106.978.052 78.204 0 105.296-.202 105.54-.377.454-46.513.493-46.966.04z" />
      <path
         d="M39.23 373.86c-.062-.165-.086-10.668-.052-23.34l.062-23.04h382.32l.07 11.28c.042 6.672-.032 12.376-.182 13.964-.536 5.669-2.581 10.297-6.223 14.083-3.69 3.836-7.719 6.06-12.706 7.016-2.479.474-363.108.511-363.288.037zm80.245-56.112c-21.81-1.94-42.067-11.927-56.98-28.09-13.06-14.155-20.999-32.026-22.913-51.578-.645-6.593-.218-16.78.988-23.542 4.068-22.823 16.716-42.845 35.63-56.407 10.156-7.282 22.909-12.694 34.997-14.852 6.855-1.224 7.34-1.255 21.33-1.37 12.767-.105 13.45-.089 15.26.369 5.97 1.51 10.388 5.78 12.1 11.69.551 1.905.553 1.967.553 16.792v14.88l-17.28.158c-9.504.087-17.766.223-18.36.303-.594.08-2.052.26-3.24.402C109.014 188 96.801 195.93 89.993 207c-8.587 13.963-8.587 31.866-.001 45.834 3.473 5.65 8.915 11.09 14.534 14.53 4.975 3.045 10.847 5.153 16.794 6.03 2.727.401 9.716.396 12.24-.01 2.637-.423 6.082-1.29 8.52-2.142 13.551-4.74 24.342-16.625 27.817-30.642 1.413-5.697 1.306-.466 1.455-70.92l.136-64.44.542-1.759c2.267-7.353 7.367-12.725 14.351-15.114 3.085-1.055 4.164-1.127 16.899-1.127h12.12v74.64c0 59.384-.063 75.155-.309 77.16-1.063 8.673-2.874 16.098-5.621 23.04-12.44 31.44-40.76 52.614-74.47 55.68-3.003.273-12.401.265-15.525-.013zm155.565.11c-5.233-.578-8.624-1.16-12.56-2.158-16.826-4.265-31.458-14.041-42.177-28.18-1.917-2.529-4.783-7-4.783-7.462 0-.319 32.306-19.178 32.852-19.178.128 0 .624.644 1.102 1.43 4.563 7.51 13.308 13.86 22.31 16.2 9.923 2.578 20.14 1.123 28.85-4.107 6.696-4.02 11.403-9.148 14.726-16.043 1.572-3.262 2.398-5.646 3.157-9.12.773-3.534.785-10.914.024-14.52-1.713-8.114-5.664-15.2-11.46-20.55-5.235-4.833-11.619-8.082-18.666-9.5-3.839-.772-10.42-.77-14.158.005-3.42.71-6.476 1.736-9.468 3.18-1.348.652-2.554 1.185-2.678 1.185-.375 0-25.585-27.1-25.665-27.59-.055-.332 7.773-7.786 29.667-28.251 16.358-15.29 29.784-27.907 29.834-28.04.062-.158-10.014-.28-29.787-.36l-29.88-.12-.061-18.693c-.045-13.61.012-18.782.209-19.02.227-.273 8.337-.326 49.812-.326 54.371 0 51.1-.086 54.778 1.43 5.417 2.234 9.507 6.968 11.103 12.85.491 1.808.527 2.556.62 12.852l.1 10.932-23.72 22.175c-13.047 12.196-23.721 22.288-23.721 22.426 0 .138.702.498 1.56.8 25.577 8.994 44.726 31.707 49.417 58.615.863 4.953 1.073 7.477 1.075 12.96.004 10.405-1.655 19.193-5.405 28.636-9.18 23.113-29.942 40.69-54.327 45.995-5.556 1.21-8.334 1.495-15.24 1.57-3.63.038-6.978.029-7.44-.022zm99.712-.157c-.063-.165-.087-52.195-.053-115.621l.061-115.32 12.72-.073c13.76-.078 14.865-.008 18.31 1.164 3.65 1.24 6.515 3.106 9.435 6.142 3.643 3.787 5.688 8.417 6.222 14.083.173 1.844.23 35.094.183 106.244l-.07 103.56-23.347.061c-18.551.049-23.37 0-23.461-.24z" />
      <path
         d="M39.36 350.76V327.6h382.08v11.495c0 6.322-.112 12.588-.25 13.926-.552 5.383-2.633 10.057-6.08 13.66-3.544 3.703-7.656 5.957-12.591 6.902-1.503.288-28.265.337-182.46.337H39.36zm80.115-33.252C93.016 315.154 69.014 300.96 54.356 279c-8.237-12.342-13.067-25.94-14.534-40.92-.393-4.018-.33-13.145.12-17.302C42.691 195.39 55.63 173.12 76.2 158.37c10.156-7.282 22.909-12.694 34.997-14.852 6.855-1.224 7.34-1.255 21.33-1.37 12.767-.105 13.45-.089 15.26.369 5.88 1.487 10.084 5.506 11.843 11.324.535 1.77.545 2.032.631 16.738l.089 14.94h-15.675c-14.742-.001-17.583.09-23.115.745-8.157.965-16.819 4.933-23.228 10.639-8.273 7.367-13.17 16.52-14.678 27.444-3.002 21.738 11.56 43.015 33.106 48.37 3.763.936 6.397 1.234 10.8 1.224 5.414-.012 9.498-.704 14.52-2.46 13.604-4.757 24.573-16.83 28.057-30.882 1.413-5.697 1.306-.466 1.455-70.92l.136-64.44.542-1.758c2.516-8.162 8.326-13.635 16.521-15.563 1.371-.323 3.743-.406 14.073-.494l12.425-.106-.073 75.08-.073 75.08-.524 3.6c-1.514 10.414-3.895 18.41-8.077 27.13-5.058 10.546-12.133 19.935-20.782 27.576-14.138 12.493-31.667 19.998-50.76 21.734-3.003.274-12.401.266-15.525-.012zm155.565.11c-5.233-.578-8.624-1.16-12.56-2.158-18.646-4.727-34.838-16.414-45.144-32.586-1.192-1.87-1.598-2.7-1.439-2.942.222-.336 31.58-18.544 32.263-18.734.234-.065.633.358 1.137 1.203 2.095 3.515 6.9 8.416 10.866 11.08 6.461 4.344 13.509 6.471 21.357 6.448 7.043-.02 13.166-1.714 19.115-5.286 6.75-4.053 11.63-9.362 14.965-16.283 1.572-3.262 2.398-5.646 3.157-9.12.773-3.534.785-10.914.024-14.52-1.722-8.158-5.637-15.155-11.554-20.65-5.313-4.935-11.704-8.21-18.812-9.64-2.228-.448-3.464-.54-7.135-.536-4.934.007-7.622.42-11.823 1.813-2.475.82-6.5 2.645-6.758 3.062-.092.149-.259.271-.37.271-.211 0-25.752-27.234-25.883-27.598-.04-.112 13.406-12.803 29.88-28.202 16.475-15.398 29.954-28.123 29.954-28.278 0-.214-7.223-.297-29.941-.343l-29.942-.06.062-18.78L236.52 87l49.56-.065c54.46-.071 51.233-.152 54.927 1.371 5.369 2.214 9.285 6.757 10.874 12.614.491 1.808.527 2.556.62 12.846l.1 10.925-23.72 22.167c-13.047 12.193-23.754 22.304-23.794 22.47-.041.173.42.482 1.08.722 13.243 4.825 23.89 11.969 32.251 21.64 10.481 12.124 16.475 25.796 18.496 42.19.385 3.127.384 12.473-.003 15.84-2.071 18.034-9.578 33.768-21.984 46.08-10.107 10.03-23.386 17.265-37.207 20.272-5.556 1.209-8.334 1.494-15.24 1.569-3.63.039-6.978.029-7.44-.022zm99.84-115.298V86.88h12.939c10.117 0 13.323.074 14.7.337 10.26 1.965 17.592 10.039 18.671 20.562.169 1.643.25 36.106.25 106.206V317.76h-46.56z" />
      <path
         d="M39.47 373.62c-.062-.165-.086-10.56-.052-23.1l.062-22.8h381.84l.07 11.04c.078 12.068-.1 15.249-1.035 18.475-2.052 7.08-7.617 12.97-14.538 15.39a30.2 30.2 0 01-3.538.958c-2.479.474-362.628.511-362.808.037zm80.245-56.112c-35.4-3.15-65.624-27.466-76.2-61.308-2.736-8.753-3.963-16.95-3.954-26.4.018-17.302 4.913-33.698 14.34-48.028 9.34-14.199 22.875-25.636 38.259-32.328 5.936-2.582 13.4-4.876 19.277-5.925 6.832-1.22 7.364-1.254 21.088-1.37 12.53-.106 13.21-.089 15.021.369 5.97 1.51 10.39 5.779 12.1 11.69.552 1.903.554 1.977.554 16.552v14.64l-17.28.157c-9.504.086-17.766.222-18.36.302-.594.08-2.052.262-3.24.404-12.546 1.497-24.759 9.427-31.567 20.497-8.618 14.013-8.618 32.296-.001 46.314 3.473 5.65 8.915 11.09 14.534 14.53 4.974 3.044 10.838 5.15 16.794 6.03 2.735.405 10.191.4 12.72-.008 2.643-.427 6.087-1.293 8.52-2.144 13.551-4.74 24.342-16.625 27.817-30.642 1.413-5.697 1.306-.466 1.455-70.92l.136-64.44.542-1.759c2.267-7.353 7.367-12.725 14.351-15.114 3.078-1.053 4.18-1.127 16.659-1.127h11.88v74.4c0 59.189-.063 74.915-.309 76.92-1.063 8.673-2.874 16.098-5.621 23.04-12.44 31.44-40.76 52.614-74.47 55.68-3.001.272-11.922.265-15.045-.013zm155.565.111c-5.26-.583-8.624-1.161-12.56-2.16-16.826-4.264-31.458-14.04-42.177-28.179-1.69-2.23-4.9-7.163-4.754-7.306.323-.316 32.228-18.614 32.456-18.614.156 0 .63.581 1.055 1.292 2.102 3.513 6.693 8.191 10.62 10.82 3.77 2.523 7.445 4.192 11.625 5.278 15.882 4.127 32.282-2.031 41.522-15.59 1.426-2.093 3.72-6.817 4.543-9.36 1.373-4.236 1.673-6.324 1.69-11.76.013-4.329-.06-5.396-.518-7.56-1.717-8.12-5.665-15.2-11.46-20.55-5.235-4.832-11.615-8.08-18.667-9.5-3.862-.779-10.879-.776-14.638.004-3.964.824-8.214 2.383-11.726 4.304-.151.082-25.47-26.901-25.605-27.29-.04-.115 13.352-12.757 29.76-28.092 16.409-15.335 29.868-28.087 29.91-28.338.075-.446-.587-.458-29.88-.517l-29.956-.061-.062-18.48c-.058-17.16-.033-18.502.346-18.78.323-.238 10.618-.3 49.572-.3 53.957 0 50.726-.085 54.402 1.43 5.417 2.235 9.509 6.97 11.103 12.85.489 1.803.527 2.568.62 12.612l.1 10.693-23.34 21.827a80032.928 80032.928 0 00-23.899 22.354c-.777.734-.52 1.124 1.068 1.62 2.166.676 6.395 2.496 9.533 4.103 21.122 10.82 36.089 31.157 40.174 54.59.855 4.905 1.07 7.462 1.072 12.72.004 10.163-1.683 19.032-5.403 28.398-9.18 23.112-29.94 40.69-54.326 45.994-5.479 1.192-8.357 1.493-15 1.569-3.498.04-6.738.03-7.2-.021zm99.712-.158c-.063-.165-.087-52.087-.053-115.381L375 87l12.48-.073c13.505-.078 14.632-.006 18.07 1.164 3.52 1.197 6.062 2.804 9.01 5.7 3.858 3.789 6.096 8.68 6.647 14.525.173 1.844.23 35.022.183 106.004l-.07 103.32-23.107.061c-18.36.049-23.13 0-23.221-.24z" />
      <path
         d="M39.6 350.76v-22.92h381.6v11.375c0 6.256-.112 12.468-.25 13.806-.564 5.5-2.622 9.987-6.272 13.67-3.7 3.734-7.35 5.731-12.16 6.652-1.502.288-28.247.337-182.34.337H39.6zm79.875-33.492c-21.818-1.941-41.665-11.752-56.67-28.015-13.056-14.15-20.83-31.644-22.743-51.173-.393-4.018-.33-13.145.12-17.302 3.145-29.046 19.433-53.453 45.378-67.995 6.841-3.835 17.414-7.556 25.637-9.024 6.845-1.222 7.35-1.254 21.237-1.37 15.05-.126 15.278-.105 18.835 1.673 1.515.758 2.415 1.435 3.891 2.927 2.264 2.288 3.341 4.015 4.173 6.692l.608 1.959.084 14.82.085 14.82h-15.754c-8.8 0-16.779.106-18.075.24-7.248.75-9.721 1.234-13.72 2.687-15.92 5.783-26.821 19.302-29.147 36.141-1.54 11.15 1.57 22.765 8.68 32.425 1.738 2.36 6.148 6.758 8.533 8.51 6.253 4.592 13.239 7.492 20.693 8.59 2.727.402 9.716.397 12.24-.009 15.256-2.451 27.458-11.502 33.845-25.104 1.966-4.186 2.928-7.258 3.87-12.36.392-2.125.43-6.665.557-66.72l.136-64.44.533-1.727c2.107-6.82 6.969-12.095 13.345-14.481 3.216-1.203 3.845-1.254 16.898-1.367l12.305-.106-.073 74.96-.073 74.96-.524 3.6c-2.142 14.73-6.659 26.67-14.377 38.003-15.039 22.084-38.333 35.772-65.002 38.197-3.003.273-12.401.266-15.525-.012zm155.565.11c-5.233-.578-8.624-1.16-12.56-2.158-16.54-4.193-30.654-13.608-41.654-27.788-1.407-1.814-4.826-6.975-4.826-7.285 0-.152 31.392-18.44 32.165-18.739.102-.04.58.577 1.062 1.37 4.545 7.482 13.37 13.825 22.558 16.212 10.796 2.805 21.633.88 31.263-5.555 5.482-3.664 9.605-8.489 12.674-14.835 1.684-3.484 2.5-5.815 3.275-9.36.773-3.534.785-10.914.024-14.52-1.723-8.162-5.905-15.701-11.614-20.936-5.2-4.77-11.944-8.176-18.992-9.594-3.839-.772-10.42-.77-14.158.005a41.337 41.337 0 00-9.503 3.182c-1.368.648-2.567 1.129-2.664 1.069-.315-.195-25.087-26.767-25.164-26.991-.04-.12 13.352-12.766 29.76-28.103 21.632-20.22 29.834-28.027 29.834-28.399v-.513l-29.941-.06-29.942-.062.062-18.539.061-18.539 49.44-.065c53.992-.07 51.098-.14 54.61 1.288 5.153 2.094 9.312 6.878 10.83 12.457.492 1.808.528 2.55.622 12.732l.1 10.812-23.721 22.171c-15.596 14.577-23.746 22.354-23.795 22.704-.064.464.137.602 1.56 1.068 4.197 1.375 10.256 4.237 14.41 6.807 18.62 11.518 31.374 30.243 35.08 51.506.864 4.954 1.074 7.478 1.076 12.96.002 5.533-.244 8.596-1.081 13.44-3.494 20.218-15.314 38.269-32.611 49.8-9.466 6.31-19.285 10.077-31.08 11.922-2.45.383-4.539.503-9.72.559-3.63.039-6.978.029-7.44-.022zM375.12 202.32V87.12h12.819c13.805 0 14.568.055 18.12 1.296 5.263 1.84 10.153 6.258 12.83 11.59.94 1.872 1.782 5.05 2.061 7.773.169 1.643.25 36.07.25 106.086V317.52h-46.08z"
         stroke-width="5.537" />
   </g>
</svg>