<?xml version="1.0" encoding="UTF-8" standalone="no"?>
<svg
   width="512mm"
   height="512mm"
   viewBox="0 0 512 512"
   version="1.1"
   id="svg848"
   sodipodi:docname="letsplay.svg"
   inkscape:version="1.1 (c4e8f9e, 2021-05-24)"
   inkscape:export-filename="/Users/d3ward/Documents/GitHub/letsplay/svg/letsplay_logos.png"
   inkscape:export-xdpi="94"
   inkscape:export-ydpi="94"
   xmlns:inkscape="http://www.inkscape.org/namespaces/inkscape"
   xmlns:sodipodi="http://sodipodi.sourceforge.net/DTD/sodipodi-0.dtd"
   xmlns:xlink="http://www.w3.org/1999/xlink"
   xmlns="http://www.w3.org/2000/svg"
   xmlns:svg="http://www.w3.org/2000/svg">
  <sodipodi:namedview
     id="namedview850"
     pagecolor="#ffffff"
     bordercolor="#666666"
     borderopacity="1.0"
     inkscape:pageshadow="2"
     inkscape:pageopacity="0.0"
     inkscape:pagecheckerboard="0"
     inkscape:document-units="mm"
     showgrid="false"
     inkscape:zoom="0.24969717"
     inkscape:cx="604.73252"
     inkscape:cy="957.15943"
     inkscape:window-width="1792"
     inkscape:window-height="992"
     inkscape:window-x="0"
     inkscape:window-y="25"
     inkscape:window-maximized="0"
     inkscape:current-layer="g846" />
  <defs
     id="defs830">
    <linearGradient
       id="linearGradient1447">
      <stop
         offset="0"
         stop-color="#2336fb"
         stop-opacity=".753"
         id="stop1443"
         style="stop-color:#232bfb;stop-opacity:0.82203382" />
      <stop
         offset="1"
         stop-color="#23f9fb"
         stop-opacity=".533"
         id="stop1445"
         style="stop-color:#23f9fb;stop-opacity:0.73305082" />
    </linearGradient>
    <linearGradient
       id="prefix__a">
      <stop
         offset="0"
         stop-color="#2336fb"
         stop-opacity=".753"
         id="stop824" />
      <stop
         offset="1"
         stop-color="#23f9fb"
         stop-opacity=".533"
         id="stop826" />
    </linearGradient>
    <linearGradient
       xlink:href="#linearGradient1447"
       id="prefix__b"
       x1="104.06348"
       y1="82.490486"
       x2="353.3829"
       y2="432.8371"
       gradientUnits="userSpaceOnUse"
       gradientTransform="matrix(1.0627436,0,0,1.0627431,16.583777,85.787766)" />
    <linearGradient
       xlink:href="#prefix__a"
       id="prefix__b-2"
       x1="36.248001"
       y1="64.476997"
       x2="126.056"
       y2="198.621"
       gradientUnits="userSpaceOnUse"
       gradientTransform="translate(29.999996,99.205003)" />
  </defs>
  <g
     transform="translate(-32.646,-101.85)"
     paint-order="stroke markers fill"
     id="g846">
    <rect
       width="510.11667"
       height="510.11664"
       x="33.587666"
       y="102.79168"
       fill="url(#prefix__b)"
       stroke="#000000"
       stroke-width="5.29199"
       stroke-linecap="round"
       stroke-linejoin="round"
       stroke-opacity="0.993"
       id="rect832"
       style="fill:url(#prefix__b);fill-opacity:1;stroke:none" />
    <path
       style="font-variation-settings:normal;stroke-width:1;-inkscape-stroke:none"
       d="m 267.50905,370.18051 c -12.97443,-0.0425 -26.43006,3.20557 -35.63281,9.28059 l -54.51597,35.98309 c -9.94222,6.57036 -10.95414,4.24932 -10.34557,25.16693 -0.13445,26.46897 -0.3892,32.07695 12.92489,39.25588 l 109.76433,41.88473 c 16.4383,4.99942 26.33099,5.88043 41.38232,-1.87168 l 67.52932,-40.10504 c 11.88822,-9.80071 11.61224,-13.30348 11.56978,-31.01197 0.092,-18.36305 2.94729,-26.76972 -14.1491,-33.40731 L 289.31119,373.90265 c -6.41115,-2.49086 -14.01819,-3.69738 -21.80214,-3.72214 z"
       fill="#303333"
       fill-rule="evenodd"
       id="path834" />
    <rect
       style="font-variation-settings:normal;stroke-width:1;-inkscape-stroke:none"
       width="34.231697"
       height="139.03198"
       x="271.52841"
       y="283.82465"
       rx="8"
       ry="2"
       fill="#b3b3b3"
       fill-rule="evenodd"
       id="rect836" />
    <circle
       cx="288.64603"
       cy="242.29018"
       r="53.072395"
       fill="#ff0000"
       id="circle838"
       style="stroke-width:1" />
    <path
       d="m 282.36578,295.36258 -1.54264,127.2853 c 0,0 86.01621,26.52558 86.11174,29.1049 0.0424,1.11806 -52.37184,27.64364 -52.37184,27.64364 -3.72922,2.69608 -2.04506,39.66277 -2.03798,45.89701 0,0 -10.31728,2.27504 -28.97046,-5.06664 -18.64964,-7.34168 -103.66808,-40.28903 -103.66808,-40.28903 -1.2702,-0.53072 -12.31987,-4.12549 -12.99566,-20.79376 -0.6581,-16.29323 0.48473,-33.93096 0.48473,-33.93096 l 145.58466,54.63981 c 0,0 0.72178,-1.74078 0.15922,-2.09106 -3.86721,-2.4201 -146.37721,-53.90386 -146.30999,-55.95599 0,0 20.54963,-12.54278 19.47757,-12.55339 -1.07206,-0.0106 84.99721,7.44075 84.99721,7.44075 l 0.66164,-124.36632 z"
       fill="#fffbfe"
       fill-opacity="0.303"
       id="path840"
       style="stroke-width:1" />
    <path
       d="m 282.36578,295.36258 c -21.28557,-5.42754 -37.44081,-13.49808 -45.48658,-41.51677 -5.17279,-35.20469 10.87276,-43.63966 29.16859,-39.66277 20.17812,4.67037 17.00439,48.90445 16.31799,81.17954 z"
       fill="#fffbfe"
       fill-opacity="0.488"
       id="path842"
       style="stroke-width:1" />
    <path
       d="m 337.22141,263.93311 c 0,0 -11.10274,23.58537 -32.65368,28.61663 l -0.007,86.82644 85.60577,33.04642 c 16.50198,6.36868 16.22247,9.86439 19.0813,13.40255 -1.53556,-0.0142 -24.92634,18.72748 -26.57512,18.33828 l -87.527,-20.75131 c -2.9119,-2.28919 2.11936,-129.0473 2.11936,-129.0473 38.67917,-40.80206 6.02195,-91.23499 4.53946,-103.44518 41.93781,13.94389 43.6432,49.78191 35.41698,73.017 z"
       fill="#00000e"
       fill-opacity="0.279"
       id="path844"
       style="stroke-width:1" />
  </g>
</svg>
