<svg xmlns="http://www.w3.org/2000/svg" width="300mm" height="300mm" viewBox="0 0 300 300"><path d="M51.352 136.642c.797-6.152 11.291-22.159 18.016-25.254 12.26 11.63 102.538 117.584 120.138 139.741-17.085-12.244-137.785-108.31-138.154-114.487z" fill="#b10dc9" paint-order="stroke markers fill"/><path d="M70.753 107.17c3.148-3.338 18.493-23.128 23.945-22.55 8.01 11.229 93.451 155.252 94.462 162.288-26.018-28.123-107.783-123.47-118.407-139.739z" fill="#ff4136" paint-order="stroke markers fill"/><path d="M95.61 80.16c6.022-4.534 26.852-20.148 28.111-16.462 2.9 8.486 62.829 166.129 62.465 173.282C179.053 225.882 99.53 88.701 95.61 80.16z" fill="#ff851b" paint-order="stroke markers fill"/><path d="M125.268 63.677c.106-4.96 22.408-16.233 29.085-15.854 2.602 8.95 33.729 175.451 30.74 179.503-4.237-8.867-40.51-109.556-59.825-163.649z" fill="#ffdc00" paint-order="stroke markers fill"/><path d="M157.053 47.398c4.759-6.83 25.33-10.244 31.812-9.727.994 61.596.788 171.154-.783 185.603-3.393-11.97-25.141-118.398-31.03-175.876z" fill="#2ecc40" paint-order="stroke markers fill"/><path d="M190.846 240.704c.893-14.222-4.947-203.217 1.424-205.164 5.799-1.743 62.877-3.11 68.624-.12 4.514 1.243 2.881 202.838.981 205.74-1.684 2.32-66.647 3.11-71.029-.456z" fill="#0074d9" paint-order="stroke markers fill"/><circle cx="227.327" cy="229.745" r="4.5" paint-order="stroke markers fill"/><path d="M203.052 263.098c7.16-1.075 14.103-8.04 19.565-11.93-.729 3.719-8.763 12.367-12.346 13.472-1.985.51-5.573-.855-7.219-1.542z" fill="#b10dc9" paint-order="stroke markers fill"/><path d="M220.165 250.536c.29 0-8.749 7.32-12.03 9.94-2.982 2.381-7.702-1.656-9.024-1.359 6.472-1.94 16.087-6.727 21.054-8.581z" fill="#ff4136" paint-order="stroke markers fill"/><path d="M196.057 253.697c8 1.023 13.422-3.147 20.323-4.48 2.085 1.438-9.703 6.728-12.788 8.272-1.978 1.327-7.177-1.718-7.535-3.792z" fill="#ff851b" paint-order="stroke markers fill"/><path d="M193.088 247.793c6.125 1.763 17.252-.193 23.319-.886-2.67.848-13.659 5.968-17.064 6.037-1.81.376-9.4-6.555-6.255-5.151z" fill="#ffdc00" paint-order="stroke markers fill"/><path d="M190.846 240.704c5.279 2.666 18.056 2.335 23.212 2.44 3.521 2.123-12.604 4.385-16.676 4.501-1.805-.033-6.705-5.709-6.536-6.941z" fill="#2ecc40" paint-order="stroke markers fill"/><path d="M208.68 268.88c-12.43-6.464-158.246-87.418-170.653-95.6-2.392-2.294-3.209-4.524-2.994-8.18 1.688-7.399 14.108-25.499 14.836-30.834.344-2.945 1.315-4.708 5.268-9.565 5.858-7.683 4.32-11.148 12.652-16.745 1.682-.923 2.056-1.38 2.661-3.259 1.01-3.132 1.596-3.87 6.342-7.98 8.52-7.902 8.173-12.245 16.26-14.766 1.338-.394 1.852-.841 2.469-2.147 1.863-2.832 3.337-3.754 8.297-7.455 10.3-6.191 11.357-10.51 18.076-11.507 1.496-.402 2.152-.735 3.48-2.125 1.617-2.35 3.072-3.218 9.156-5.46 12.993-5.106 14.205-8.749 19.168-8.172 1.681.23 1.23.883 4.367-1.364 2.237-1.762 4.195-2.34 9.767-3.782 13.5-2.656 16.369-6.021 20.945-4.66 2.367 1.337 1.837-.52 5.752-1.51 3.825-.953 12.356-.793 21.253-2.467 4.078-.814 5.734-.801 7.815.058 1.427.59 4.122.735 17.322.932l15.631.234c3.898.082 7.415 3.643 7.732 6.866.045 5.507-.068 192.322-.056 198.667-.022 1.828-2.593 5.826-5.908 6.358-2.3.18-23.745.383-25.994.45-2.388 3.854-11.918 22.213-15.486 23.67-2.211.704-4.48 1.398-8.158.342zm3.432-5.673c1.368-.65 4.295-3.89 9.548-10.57.772-.983 1.24-1.357-5.973 4.775-5.162 4.39-6.277 5.057-9.087 5.444l-2.014.277 1.267.565c1.572.7 4.18.495 6.259-.49zm-3.453-3.522c1.366-.697 10.08-7.939 10.08-8.378 0-.196-2.272 1.08-6.63 3.72-5.127 3.105-6.96 3.856-9.529 3.902-1.335.024-2.429.1-2.43.17 0 .07.618.395 1.373.723 1.945.846 5.336.78 7.136-.138zm-4.324-3.446c1.365-.392 11.981-6.377 11.74-6.62-.064-.063-3.246 1.038-7.07 2.447-6.459 2.379-7.145 2.546-9.64 2.35-2.355-.185-2.61-.136-2.069.406.715.715 3.521 1.782 4.758 1.81.466.01 1.493-.167 2.28-.393zm4.139-6.578c3.068-1.135 5.526-2.115 5.463-2.179-.063-.063-3.334.46-7.268 1.163-7.32 1.307-9.504 1.345-11.706.203-2.415-1.253-.494 1.105 2.018 2.478 2.046 1.117 5.216.658 11.493-1.664zM69.368 111.388c-2.885 2.959-15.615 19.007-16.337 20.596-1.014 2.229-1.32 5.728.468 7.334 1.17 1.052 135.245 111.643 136.007 111.811-4.885-5.418-117.326-137.035-120.138-139.74zm136.274 134.813l6.549-1.17-8.028-.211c-7.8-.206-8.085-.244-10.098-1.38-1.139-.642-2.156-1.082-2.26-.978-.442.442 3.207 3.71 4.754 4.258 2.211.782 1.598.817 9.083-.52zm-18.534-2.542c-8.639-15.532-71.104-122.896-92.41-159.04-6.091 4.772-16.252 15.07-19.63 18.513-3.38 3.443-3.6 4.483-1.755 7.465.56 1.23 113.54 133.74 114.072 133.79.066.008-.057-.322-.277-.728zm75.084-7.105c-.201-4.947-.3-193.516-.445-196.888-.228-2.192-2.688-4.251-5.393-4.39-1.187-.06-11.005-.415-30.81-.334l-26.719.25c-4.99.223-7.664 2.644-7.956 5.784.972 65.258.391 189.593.435 196.107.08 2.11 2.454 4.82 5.316 4.82 4.11.378 30.704.374 59.585.383 3.082-.304 5.431-1.722 5.987-5.732zM123.04 64.096c-3.66 2.089-21.94 14.473-24.188 16.48-2.247 2.006.16 5.506.16 5.506 6.036 9.665 78.722 136.06 87.085 150.541-7.703-20.173-45.005-117.182-63.057-172.527zm31.271-15.451c-3.738 1.123-22.3 9.435-25.8 11.352-3.007 1.83-3.38 2.81-2.352 5.613 1.334 3.637 60.194 164.404 60.39 164.217-4.522-.274-29.233-176.106-32.238-181.182zm33.113-10.268c-4.291.795-23.46 5.33-26.35 6.119-3.629 1.163-4.154 3.618-3.587 6.318 1.982 12.3 28.06 157.905 30.595 172.46-.125-10.194 1.205-168.025-.658-184.897z"/><path d="M239.66 111.892c-1.28-1.526-2.58-2.005-4.317-2.366 0 0-.036-1.194-.053-2.542l9.172-.138.053 12.23c-3.594.018-3.56-4.892-4.855-7.184zM212.816 107.122l9.297-.04v2.441c-3.842.845-4.556 2.95-5.728 5.522-.844 2.08-.95 3.896-3.62 4.05zM221.242 194.522c.763-.244 1.735-.245 2.622-1.56.724-1.073 0-28.855 0-28.855-.496-1.652-1.739-1.68-3.052-2.26-.828-.61-.535-1.038-.476-2.032h15.875c.06.757.16 1.723-.388 2.001-1.305.457-2.696.979-3.033 2.153-.26.954-.66 27.262-.01 28.704.63 1.488 1.558 1.293 2.8 1.763 1.18.621.72 1.245.72 2.253h-16.052c-.077-2.046-.197-1.861.994-2.167zM220.57 141.92c1.185-.474 2.442-.22 3.43-1.793.33-.526.414-33.045.414-33.045h8.636l.249 32.903c.872 1.846 2.77 1.563 3.56 1.839.79.275.424 2.123.424 2.123h-17.286c-.031-.84-.012-1.76.573-2.027zM234.448 91.67c-.206-.207-.126-1.597.103-1.783.987-.49 2.257-.614 2.958-1.394 1.739-.835.142-24.406.382-27.477l-4.982 19.129-1.711-4.168c1.839-6.984 3.423-14.039 5.32-21.008l13.6-.064v1.868l-1.22.396c-.67.217-1.375.535-1.567.705-.839.747-.83.566-.83 15.492 0 12.619.03 14.107.288 14.652 1.022 1.38 1.866 1.38 3.417 1.843v1.926l-15.758-.118zM212.988 59.14c-.146-.075-1.098-.332-2.117-.571-2.991-.704-2.822-.57-2.822-2.232V54.92l12.612.002 11.046 29.014-1.698 7.76-4.46.1z"/><path d="M209.107 89.877c.959-.426 2.08-.67 2.924-1.307.966-.76.957-.635.96-12.432.005-9.68.034-10.839.262-10.369 1.214 3.02 2.068 5.365 3.263 8.557-.052 2.816-.81 10.706.336 13.332.355.783.988 1.247 2.398 1.755 1.466.61 1.323 1.071 1.323 2.374h-11.466v-1.91z"/></svg>