<svg width="300mm" height="300mm" viewBox="0 0 300 300" xmlns="http://www.w3.org/2000/svg"><path d="M64.154 138.98c.668-5.153 9.46-18.564 15.094-21.157 10.272 9.744 85.907 98.513 100.653 117.076-14.314-10.258-115.438-90.743-115.747-95.918z" fill="#b10dc9" paint-order="stroke markers fill"/><path d="M80.408 114.289c2.638-2.797 15.494-19.377 20.062-18.893 6.71 9.408 78.294 130.072 79.141 135.967-21.798-23.562-90.302-103.445-99.203-117.075z" fill="#ff4136" paint-order="stroke markers fill"/><path d="M101.234 91.66c5.045-3.799 22.497-16.88 23.552-13.792 2.43 7.11 52.638 139.184 52.333 145.177-5.976-9.298-72.601-124.23-75.885-131.385z" fill="#ff851b" paint-order="stroke markers fill"/><path d="M126.082 77.85c.088-4.156 18.773-13.6 24.367-13.283 2.18 7.499 28.259 146.995 25.755 150.39-3.55-7.429-33.94-91.787-50.122-137.107z" fill="#ffdc00" paint-order="stroke markers fill"/><path d="M152.711 64.211c3.988-5.722 21.222-8.582 26.653-8.15.833 51.607.66 143.396-.656 155.501-2.843-10.028-21.064-99.195-25.997-147.35z" fill="#2ecc40" paint-order="stroke markers fill"/><path d="M181.024 226.165c.748-11.915-4.145-170.257 1.193-171.889 4.858-1.46 52.679-2.605 57.494-.1 3.781 1.041 2.413 169.94.821 172.371-1.41 1.944-55.837 2.606-59.508-.382z" fill="#0074d9" paint-order="stroke markers fill"/><circle cx="211.588" cy="216.984" r="3.77" paint-order="stroke markers fill"/><path d="M191.25 244.927c5.999-.9 11.816-6.736 16.392-9.995-.611 3.116-7.342 10.361-10.344 11.287-1.663.427-4.669-.716-6.048-1.292z" fill="#b10dc9" paint-order="stroke markers fill"/><path d="M205.587 234.403c.243 0-7.33 6.132-10.078 8.327-2.499 1.995-6.453-1.387-7.56-1.138 5.421-1.626 13.477-5.636 17.638-7.19z" fill="#ff4136" paint-order="stroke markers fill"/><path d="M185.39 237.05c6.702.858 11.245-2.636 17.026-3.753 1.747 1.205-8.129 5.637-10.714 6.93-1.657 1.113-6.013-1.438-6.313-3.176z" fill="#ff851b" paint-order="stroke markers fill"/><path d="M182.902 232.104c5.132 1.477 14.454-.161 19.537-.742-2.237.71-11.444 5-14.297 5.058-1.516.315-7.875-5.492-5.24-4.316z" fill="#ffdc00" paint-order="stroke markers fill"/><path d="M181.024 226.165c4.422 2.234 15.127 1.956 19.447 2.044 2.95 1.78-10.56 3.674-13.971 3.771-1.513-.027-5.618-4.783-5.476-5.815z" fill="#2ecc40" paint-order="stroke markers fill"/><path d="M195.965 249.771c-10.414-5.415-132.58-73.24-142.975-80.094-2.004-1.922-2.688-3.79-2.508-6.854 1.414-6.199 11.82-21.363 12.43-25.833.288-2.467 1.101-3.944 4.413-8.013 4.908-6.437 3.62-9.34 10.6-14.03 1.41-.773 1.723-1.156 2.23-2.73.846-2.624 1.337-3.242 5.313-6.686 7.138-6.62 6.847-10.259 13.623-12.37 1.12-.331 1.551-.705 2.068-1.8 1.561-2.372 2.796-3.145 6.952-6.246 8.629-5.186 9.515-8.805 15.144-9.64 1.253-.337 1.803-.616 2.915-1.78 1.355-1.97 2.574-2.697 7.671-4.575 10.886-4.278 11.902-7.33 16.06-6.847 1.408.193 1.03.74 3.658-1.142 1.874-1.477 3.515-1.96 8.183-3.169 11.31-2.225 13.714-5.044 17.548-3.904 1.983 1.12 1.54-.436 4.82-1.265 3.204-.799 10.351-.665 17.805-2.067 3.417-.682 4.804-.671 6.548.048 1.195.495 3.453.616 14.512.781l13.096.196c3.266.069 6.213 3.052 6.478 5.753.038 4.614-.057 161.13-.047 166.445-.018 1.532-2.172 4.881-4.95 5.327-1.927.15-19.893.32-21.778.377-2 3.229-9.985 18.61-12.974 19.831-1.852.59-3.753 1.171-6.835.287zm2.875-4.753c1.147-.544 3.599-3.259 8-8.855.647-.824 1.039-1.137-5.004 4-4.325 3.678-5.26 4.237-7.614 4.561l-1.687.232 1.062.474c1.317.586 3.502.415 5.243-.41zm-2.892-2.95c1.144-.584 8.445-6.652 8.445-7.02 0-.164-1.904.905-5.555 3.117-4.295 2.602-5.831 3.23-7.984 3.27-1.118.02-2.035.083-2.035.142 0 .058.517.33 1.15.605 1.63.71 4.47.654 5.979-.115zm-3.623-2.887c1.143-.329 10.038-5.343 9.836-5.547-.054-.053-2.72.87-5.924 2.05-5.411 1.994-5.986 2.133-8.076 1.97-1.973-.156-2.187-.115-1.734.34.6.598 2.95 1.492 3.987 1.516.39.008 1.25-.14 1.91-.33zm3.468-5.512c2.57-.95 4.63-1.772 4.577-1.825-.053-.053-2.794.385-6.09.974-6.132 1.095-7.962 1.127-9.807.17-2.023-1.05-.414.926 1.69 2.076 1.715.936 4.37.552 9.63-1.394zM79.248 117.823c-2.417 2.479-13.082 15.924-13.687 17.255-.85 1.868-1.106 4.8.392 6.145.98.881 113.31 93.536 113.948 93.676-4.093-4.539-98.297-114.81-100.653-117.075zM193.42 230.77l5.487-.98-6.726-.177c-6.535-.173-6.774-.205-8.46-1.157-.955-.537-1.807-.906-1.894-.819-.37.37 2.687 3.108 3.983 3.567 1.852.656 1.339.685 7.61-.435zm-15.528-2.13c-7.238-13.013-59.572-102.964-77.422-133.246-5.103 3.998-13.616 12.626-16.447 15.51-2.831 2.885-3.016 3.757-1.47 6.255.47 1.03 95.125 112.049 95.57 112.09.056.008-.047-.269-.231-.61zm62.906-5.953c-.168-4.144-.251-162.13-.373-164.955-.19-1.836-2.252-3.561-4.518-3.678-.995-.05-9.22-.347-25.813-.28l-22.386.21c-4.18.187-6.42 2.215-6.665 4.846.814 54.674.327 158.843.364 164.3.067 1.768 2.056 4.039 4.454 4.039 3.444.316 25.724.313 49.921.32 2.582-.254 4.55-1.442 5.016-4.802zM124.215 78.201c-3.066 1.75-18.382 12.126-20.265 13.807-1.883 1.68.134 4.613.134 4.613 5.057 8.098 65.954 113.993 72.96 126.125-6.453-16.901-37.705-98.176-52.829-144.545zm26.2-12.945c-3.133.94-18.684 7.905-21.616 9.51-2.52 1.534-2.832 2.355-1.97 4.703 1.117 3.048 50.43 137.74 50.595 137.583-3.79-.23-24.492-147.543-27.01-151.796zm27.742-8.603c-3.595.666-19.655 4.466-22.077 5.127-3.04.974-3.48 3.031-3.005 5.293 1.66 10.305 23.509 132.295 25.633 144.49-.105-8.542 1.01-140.774-.551-154.91z"/><path d="M221.92 118.245c-1.072-1.278-2.161-1.68-3.616-1.982 0 0-.03-1-.045-2.13l7.685-.116.044 10.247c-3.011.015-2.983-4.099-4.067-6.019zm-22.49-3.996l7.79-.034v2.045c-3.22.708-3.818 2.472-4.8 4.627-.707 1.742-.795 3.264-3.032 3.393zm7.06 73.224c.639-.204 1.453-.205 2.196-1.307.607-.899 0-24.175 0-24.175-.415-1.384-1.456-1.407-2.557-1.893-.693-.511-.448-.87-.398-1.703h13.3c.05.635.134 1.444-.325 1.677-1.093.383-2.259.82-2.541 1.804-.218.799-.553 22.84-.008 24.048.528 1.247 1.305 1.084 2.346 1.477.988.52.603 1.043.603 1.888h-13.449c-.064-1.714-.165-1.56.833-1.816zm-.563-44.07c.993-.397 2.046-.184 2.873-1.502.277-.441.347-27.686.347-27.686h7.236l.208 27.567c.73 1.546 2.321 1.31 2.983 1.54.662.23.355 1.78.355 1.78h-14.482c-.026-.705-.01-1.475.48-1.7zm11.627-42.1c-.173-.174-.106-1.338.086-1.494.827-.41 1.891-.514 2.478-1.168 1.457-.7.12-20.448.32-23.02l-4.174 16.026-1.433-3.492c1.54-5.851 2.868-11.762 4.457-17.6l11.394-.054v1.565l-1.022.331c-.561.182-1.152.449-1.313.591-.703.626-.695.474-.695 12.98 0 10.572.025 11.819.241 12.275.857 1.156 1.564 1.156 2.863 1.544v1.614l-13.202-.1zm-17.98-27.254c-.122-.063-.92-.278-1.773-.479-2.506-.59-2.365-.477-2.365-1.87v-1.187l10.567.002 9.254 24.308-1.422 6.502-3.737.083z"/><path d="M196.323 99.8c.803-.356 1.743-.56 2.45-1.094.809-.637.801-.532.804-10.416.004-8.11.028-9.081.22-8.687 1.017 2.53 1.732 4.495 2.733 7.169-.043 2.36-.678 8.97.282 11.17.297.656.827 1.044 2.009 1.47 1.228.51 1.108.897 1.108 1.989h-9.606z"/></svg>