<svg xmlns="http://www.w3.org/2000/svg" viewBox="0 0 595.28 841.89">
    <linearGradient id="prefix__a" gradientUnits="userSpaceOnUse" x1="291.112" y1="498.327" x2="327.148" y2="228.275"
        gradientTransform="translate(22.509 9.098)">
        <stop offset=".099" stop-color="#5869b0" />
        <stop offset=".127" stop-color="#5c68ae" />
        <stop offset=".414" stop-color="#7e569d" />
        <stop offset=".573" stop-color="#884e96" />
        <stop offset=".926" stop-color="#e61a60" />
    </linearGradient>
    <path
        d="M414.13 367.66l12.09-12.09a3.404 3.404 0 000-4.8l-36.7-35.95a3.404 3.404 0 00-4.8 0l-47.2 49.13a11.778 11.778 0 01-5.77 3.3l-1.41.34c-.82.2-1.67.29-2.51.25-4.34-.23-8.11-1.12-10.79-3.6-1.61-1.49-2.92-3.39-3.87-5.45-1.67-3.62-1.9-7.74-1.1-11.65l.01-.06a9.982 9.982 0 012.27-4.56l6.45-7.34 43.86-41.71a3.374 3.374 0 000-4.76l-6.44-6.44a3.374 3.374 0 00-4.76 0l-38.76 38.76a17.105 17.105 0 01-10.71 4.96l-1.9.16c-8.64 0-15.71-6.67-15.65-14.91.01-.7.04-1.36.09-1.96.26-3.01 1.65-5.8 3.79-7.93l40.99-40.81a2.963 2.963 0 000-4.18l-24.02-24.02a2.963 2.963 0 00-4.18 0L191.99 343.45a4.261 4.261 0 000 6.02l23.1 23.1 121.41 120.9 18.61 18.61c1.65 1.65 4.36 1.65 6.01 0L471.2 402c1.65-1.65 1.65-4.36 0-6.01l-18.61-18.61c-1.65-1.65-4.36-1.65-6.01 0l-15.54 12.3c-5.22 5.22-13.8 5.09-19.17-.28-5.37-5.37-5.5-13.96-.28-19.17l2.54-2.57"
        fill="url(#prefix__a)" stroke="#fff" stroke-width=".5" stroke-miterlimit="10" />
    <linearGradient id="prefix__b" gradientUnits="userSpaceOnUse" x1="399.57" y1="348.812" x2="399.57" y2="348.812"
        gradientTransform="translate(22.509 9.098)">
        <stop offset=".099" stop-color="#5869b0" />
        <stop offset=".127" stop-color="#5c68ae" />
        <stop offset=".414" stop-color="#7e569d" />
        <stop offset=".573" stop-color="#884e96" />
        <stop offset=".926" stop-color="#e61a60" />
    </linearGradient>
    <path 
        d="M329.96 543.68c-4.43 4.58-9.74 9.89-19.79 9.89s-17.2-4.26-21.85-8.6l-40.3-39.53c-.73-.72-1.9-.72-2.64 0l-5.86 5.76-64.25 64.25c-6.99 6.99-18.42 6.99-25.41 0l-21.79-21.79c-6.99-6.99-6.99-18.42 0-25.41L192.32 464l6.39-6.21c.78-.76.8-2.01.04-2.79l-37.32-38.42c-4.05-4.12-8.74-10.03-9.89-19.79-1.18-9.97 4.6-18.03 8.6-21.85l10.29-10.63a4.256 4.256 0 016.06-.06l163.79 162.81a4.252 4.252 0 01.05 5.99l-10.37 10.63z" />
</svg>