<svg xmlns="http://www.w3.org/2000/svg" xmlns:xlink="http://www.w3.org/1999/xlink" width="140" height="140" version="1.1" id="prefix__prefix__prefix__Livello_1" x="0" y="0" viewBox="0 0 4.114 2.744" xml:space="preserve"><defs id="prefix__prefix__prefix__defs951"><linearGradient xlink:href="#prefix__prefix__prefix__SVGID_2_" id="prefix__prefix__prefix__linearGradient957" gradientUnits="userSpaceOnUse" x1="154.935" y1="407.842" x2="417.641" y2="407.842" gradientTransform="translate(287.218 343.744)"/><linearGradient xlink:href="#prefix__prefix__prefix__SVGID_2_" id="prefix__prefix__linearGradient902" x1="-13.679" y1="15.541" x2="32.927" y2="15.541" gradientUnits="userSpaceOnUse" gradientTransform="translate(-41.049) scale(6.0135)"/><linearGradient xlink:href="#prefix__prefix__prefix__SVGID_2_" id="prefix__linearGradient1489" x1="0" y1="1.372" x2="4.114" y2="1.372" gradientUnits="userSpaceOnUse"/></defs><style type="text/css" id="style833"/><linearGradient id="prefix__prefix__prefix__SVGID_1_" gradientUnits="userSpaceOnUse" x1="163.91" y1="518.893" x2="444.176" y2="518.893" gradientTransform="translate(6.826) scale(.1663)" xlink:href="#prefix__prefix__prefix__SVGID_6_"><stop offset=".34" id="prefix__prefix__prefix__stop835" stop-color="#2a4798"/><stop offset=".389" id="prefix__prefix__prefix__stop837" stop-color="#50478b"/><stop offset=".479" id="prefix__prefix__prefix__stop839" stop-color="#814672"/><stop offset=".57" id="prefix__prefix__prefix__stop841" stop-color="#a44359"/><stop offset=".659" id="prefix__prefix__prefix__stop843" stop-color="#be3e43"/><stop offset=".745" id="prefix__prefix__prefix__stop845" stop-color="#d03a30"/><stop offset=".829" id="prefix__prefix__prefix__stop847" stop-color="#dc3521"/><stop offset=".908" id="prefix__prefix__prefix__stop849" stop-color="#e33217"/><stop offset=".978" id="prefix__prefix__prefix__stop851" stop-color="#e53112"/></linearGradient><path id="prefix__prefix__prefix__path854" d="M.314 0C.25 0 .24.018.21.045S.172.141.172.141V2.16a.17.17 0 00.042.107c.025.033.09.046.09.046H3.82c.04-.002.06-.03.084-.052.026-.022.042-.088.042-.088S3.943.29 3.945.209a.265.265 0 00-.037-.157C3.89.024 3.818 0 3.818 0zM3.77.167l.002 1.972H.341V.171zM1.246.851v.096h.126v.385h.063V.947h.127V.851zm1.327 0v.481h.316v-.096h-.253V.851zM.614.85v.096h.063V.851zm0 .096H.551v.096H.488v.097H.55v-.096h.063zm-.063.193v.096h.063V1.14zm.063.096v.096h.063v-.096zm.443-.385v.096h.063V.851zm0 .096H.993v.096H.93v.097h.063v-.096h.064zm.695-.096v.096h.19v.289h.062V.947h-.063V.851zm.19.385h-.19v.096h.19zm.252-.385v.096h.19v.289h.063V.947h-.064V.851zm.19.385h-.19v.096h.19zm.631-.385v.096h.19v.096h-.063v.097h-.063v.096h-.063v.096h.315v-.096h-.19V1.14h.064v-.096h.063V.947h.063V.851zm.443 0v.096h.063V.851zm-1.77.096v.289h.064V.947zm.443 0v.289h.063V.947zm1.39 0v.097h.063v.096h.063v-.097h-.063V.947zM.867 1.14v.096H.93V1.14zm0 .096H.804v.096h.063zm2.654-.096v.096h.063V1.14zm0 .096h-.063v.096h.063zM.035 2.4S0 2.395 0 2.422v.28s-.006.04.03.041c.034.002 4.056-.002 4.056-.002s.021.001.026-.025c.005-.026 0-.294 0-.294s.01-.025-.035-.023H2.485v.083l-.86.003v-.086z" fill="url(#prefix__linearGradient1489)" fill-opacity="1" stroke-width="1"/><g id="prefix__prefix__prefix__XMLID_9_" transform="translate(-297.16 -354.372)"><g id="prefix__prefix__prefix__g877"><linearGradient id="prefix__prefix__prefix__SVGID_2_" gradientUnits="userSpaceOnUse" x1="175.604" y1="422.53" x2="432.704" y2="422.53"><stop offset=".34" id="prefix__prefix__prefix__stop856" stop-color="#2a4798"/><stop offset=".389" id="prefix__prefix__prefix__stop858" stop-color="#50478b"/><stop offset=".479" id="prefix__prefix__prefix__stop860" stop-color="#814672"/><stop offset=".57" id="prefix__prefix__prefix__stop862" stop-color="#a44359"/><stop offset=".659" id="prefix__prefix__prefix__stop864" stop-color="#be3e43"/><stop offset=".745" id="prefix__prefix__prefix__stop866" stop-color="#d03a30"/><stop offset=".829" id="prefix__prefix__prefix__stop868" stop-color="#dc3521"/><stop offset=".908" id="prefix__prefix__prefix__stop870" stop-color="#e33217"/><stop offset=".978" id="prefix__prefix__prefix__stop872" stop-color="#e53112"/></linearGradient></g></g><g id="prefix__prefix__prefix__g946" transform="translate(-297.16 -354.372)"><g id="prefix__prefix__prefix__g938"><linearGradient id="prefix__prefix__prefix__SVGID_3_" gradientUnits="userSpaceOnUse" x1="154.935" y1="407.842" x2="417.641" y2="407.842"><stop offset=".448" id="prefix__prefix__prefix__stop882" stop-color="#345ea9"/><stop offset=".624" id="prefix__prefix__prefix__stop884" stop-color="#eadf00"/></linearGradient><linearGradient id="prefix__prefix__prefix__SVGID_4_" gradientUnits="userSpaceOnUse" x1="154.935" y1="407.842" x2="417.641" y2="407.842"><stop offset=".448" id="prefix__prefix__prefix__stop889" stop-color="#345ea9"/><stop offset=".624" id="prefix__prefix__prefix__stop891" stop-color="#eadf00"/></linearGradient><linearGradient id="prefix__prefix__prefix__SVGID_5_" gradientUnits="userSpaceOnUse" x1="154.935" y1="407.842" x2="417.641" y2="407.842"><stop offset=".448" id="prefix__prefix__prefix__stop896" stop-color="#345ea9"/><stop offset=".624" id="prefix__prefix__prefix__stop898" stop-color="#eadf00"/></linearGradient><linearGradient id="prefix__prefix__prefix__SVGID_6_" gradientUnits="userSpaceOnUse" x1="154.935" y1="407.842" x2="417.641" y2="407.842"><stop offset=".448" id="prefix__prefix__prefix__stop903" stop-color="#345ea9"/><stop offset=".624" id="prefix__prefix__prefix__stop905" stop-color="#eadf00"/></linearGradient><linearGradient id="prefix__prefix__prefix__SVGID_7_" gradientUnits="userSpaceOnUse" x1="154.935" y1="407.842" x2="417.641" y2="407.842"><stop offset=".448" id="prefix__prefix__prefix__stop910" stop-color="#345ea9"/><stop offset=".624" id="prefix__prefix__prefix__stop912" stop-color="#eadf00"/></linearGradient><linearGradient id="prefix__prefix__prefix__SVGID_8_" gradientUnits="userSpaceOnUse" x1="154.935" y1="407.842" x2="417.641" y2="407.842"><stop offset=".448" id="prefix__prefix__prefix__stop917" stop-color="#345ea9"/><stop offset=".624" id="prefix__prefix__prefix__stop919" stop-color="#eadf00"/></linearGradient><linearGradient id="prefix__prefix__prefix__SVGID_9_" gradientUnits="userSpaceOnUse" x1="154.935" y1="407.842" x2="417.641" y2="407.842"><stop offset=".448" id="prefix__prefix__prefix__stop924" stop-color="#345ea9"/><stop offset=".624" id="prefix__prefix__prefix__stop926" stop-color="#eadf00"/></linearGradient><linearGradient id="prefix__prefix__prefix__SVGID_10_" gradientUnits="userSpaceOnUse" x1="154.935" y1="407.842" x2="417.641" y2="407.842"><stop offset=".448" id="prefix__prefix__prefix__stop931" stop-color="#345ea9"/><stop offset=".624" id="prefix__prefix__prefix__stop933" stop-color="#eadf00"/></linearGradient></g></g></svg>