<?xml version="1.0" encoding="utf-8"?>
<!-- Generator: Adobe Illustrator 23.1.0, SVG Export Plug-In . SVG Version: 6.00 Build 0)  -->
<svg version="1.1" id="Livello_5" xmlns="http://www.w3.org/2000/svg" xmlns:xlink="http://www.w3.org/1999/xlink" x="0px" y="0px"
	 viewBox="0 0 595.28 841.89" style="enable-background:new 0 0 595.28 841.89;" xml:space="preserve">
<style type="text/css">
	.st0{fill:url(#SVGID_1_);stroke:#000000;stroke-width:2;stroke-miterlimit:10;}
	.st1{fill:none;stroke:#000000;stroke-miterlimit:10;}
	.st2{fill:url(#SVGID_2_);stroke:#000000;stroke-width:2;stroke-miterlimit:10;}
	.st3{fill:url(#SVGID_3_);stroke:#000000;stroke-width:2;stroke-miterlimit:10;}
</style>
<linearGradient id="SVGID_1_" gradientUnits="userSpaceOnUse" x1="253.2469" y1="342.5359" x2="254.9353" y2="197.0054">
	<stop  offset="0.1704" style="stop-color:#66C1BF"/>
	<stop  offset="0.1769" style="stop-color:#6DC1BC"/>
	<stop  offset="0.2949" style="stop-color:#BAB47E"/>
	<stop  offset="0.3937" style="stop-color:#DCA14B"/>
	<stop  offset="0.4683" style="stop-color:#EC9129"/>
	<stop  offset="0.5101" style="stop-color:#F28A19"/>
	<stop  offset="0.8983" style="stop-color:#E72380"/>
</linearGradient>
<path class="st0" d="M289.27,268.57c10.63-7.7,21.71-7.04,29.51-1.84c3.37,2.25,7.89-0.33,7.89-4.38V218.7
	c0-2.85-2.31-5.16-5.16-5.16H186.29c-2.85,0-5.16,2.31-5.16,5.16v42.6c0,3.98,4.27,6.4,7.75,4.46c7.67-4.28,17.99-4.38,27.93,2.83
	c0.45,0.33,0.86,0.74,1.19,1.19c13.94,19.2,0.54,40.03-17.72,40.03c-4.15,0-8.04-1.08-11.42-2.97c-3.46-1.94-7.72,0.5-7.72,4.47
	v42.58c0,2.86,2.33,5.18,5.19,5.16l41.61-0.17c3.86-0.02,6.25,3.99,4.63,7.49c-1.61,3.48-2.15,7.21-2.15,11.69
	c0,12.98,9.99,23.5,22.31,23.5c12.32,0,22.31-10.52,22.31-23.5c0-4.39-0.52-8.57-1.96-12.15c-1.36-3.38,1.28-7.04,4.92-7.03
	l43.5,0.18c2.86,0.01,5.19-2.3,5.19-5.16v-43.64c0-4.13-4.58-6.54-8.04-4.28c-3.69,2.42-8.1,3.83-12.84,3.83
	c-18.27,0-31.66-20.84-17.72-40.04C288.4,269.31,288.82,268.9,289.27,268.57z"/>
<path class="st1" d="M265.13,358.83"/>
<linearGradient id="SVGID_2_" gradientUnits="userSpaceOnUse" x1="215.3002" y1="401.4587" x2="270.763" y2="528.4919" gradientTransform="matrix(0.979 0.2038 -0.2038 0.979 94.1099 -39.7994)">
	<stop  offset="0.2612" style="stop-color:#66C1BF"/>
	<stop  offset="0.2659" style="stop-color:#6DC1BC"/>
	<stop  offset="0.3524" style="stop-color:#BAB47E"/>
	<stop  offset="0.4248" style="stop-color:#DCA14B"/>
	<stop  offset="0.4794" style="stop-color:#EC9129"/>
	<stop  offset="0.5101" style="stop-color:#F28A19"/>
	<stop  offset="0.596" style="stop-color:#F1891D"/>
	<stop  offset="0.6511" style="stop-color:#F18627"/>
	<stop  offset="0.6976" style="stop-color:#F08134"/>
	<stop  offset="0.7392" style="stop-color:#EF7A44"/>
	<stop  offset="0.7776" style="stop-color:#EE7055"/>
	<stop  offset="0.8137" style="stop-color:#EC6364"/>
	<stop  offset="0.8479" style="stop-color:#EA5171"/>
	<stop  offset="0.8799" style="stop-color:#E8387B"/>
	<stop  offset="0.8983" style="stop-color:#E72380"/>
</linearGradient>
<path class="st2" d="M344.92,452.87c-8.51-9.33-18.98-11.17-27.49-8.19c-3.86,1.35-7.69-2.21-6.85-6.22l8.71-41.84
	c0.59-2.85-1.24-5.64-4.08-6.23l-42.91-8.93c-4-0.83-7.54,3-6.16,6.84c3.06,8.54,1.26,19.09-8.13,27.65
	c-0.42,0.38-0.92,0.71-1.44,0.94c-21.63,9.73-39.29-7.63-35.57-25.51c0.9-4.33,2.95-8.13,5.75-11.15c2.83-3.04,1.36-7.97-2.71-8.82
	l-43.02-8.96c-2.85-0.59-5.64,1.24-6.23,4.08l-8.65,41.58c-0.83,3.99-5.61,5.48-8.7,2.82c-6.64-5.72-16.71-7.9-27.87-2.89
	c-0.52,0.23-1.01,0.56-1.43,0.94c-17.54,15.95-8.67,39.07,9.2,42.79c4.05,0.84,8.06,0.59,11.75-0.56c3.88-1.21,7.64,2.09,6.81,6.07
	l-8.66,41.58c-0.59,2.85,1.24,5.64,4.08,6.23l43.41,9.04c4.04,0.84,7.52-3.11,6.02-6.95c-3.38-8.66-1.71-19.53,7.9-28.28
	c0.42-0.38,0.92-0.71,1.44-0.95c21.63-9.72,39.29,7.63,35.57,25.51c-0.95,4.55-3.16,8.52-6.18,11.62c-2.94,3.01-1.5,8.05,2.62,8.91
	l43.41,9.04c2.85,0.59,5.64-1.24,6.23-4.08l8.75-42.02c0.84-4.05,5.75-5.53,8.79-2.73c3.01,2.77,6.77,4.78,11.07,5.67
	c17.88,3.72,35.24-13.94,25.51-35.57C345.63,453.79,345.3,453.29,344.92,452.87z"/>
<linearGradient id="SVGID_3_" gradientUnits="userSpaceOnUse" x1="189.4138" y1="429.1906" x2="257.6666" y2="286.4914" gradientTransform="matrix(0.194 0.981 -0.981 0.194 716.9963 90.9023)">
	<stop  offset="0.1704" style="stop-color:#66C1BF"/>
	<stop  offset="0.1769" style="stop-color:#6DC1BC"/>
	<stop  offset="0.2949" style="stop-color:#BAB47E"/>
	<stop  offset="0.3937" style="stop-color:#DCA14B"/>
	<stop  offset="0.4683" style="stop-color:#EC9129"/>
	<stop  offset="0.5101" style="stop-color:#F28A19"/>
	<stop  offset="0.8983" style="stop-color:#E72380"/>
</linearGradient>
<path class="st3" d="M443.12,482.88c5.27-11.47,2.89-21.83-3.18-28.51c-2.75-3.03-0.96-7.94,3.05-8.73l41.93-8.29
	c2.85-0.56,4.71-3.34,4.15-6.19l-8.5-43c-0.79-4-5.7-5.78-8.7-3.01c-6.67,6.15-17.09,8.6-28.63,3.29c-0.52-0.24-1.01-0.57-1.43-0.96
	c-17.39-16.13-8.29-39.16,9.63-42.7c4.34-0.86,8.64-0.46,12.51,0.95c3.9,1.42,7.87-1.86,7.06-5.93l-8.52-43.11
	c-0.56-2.85-3.34-4.71-6.19-4.15l-41.66,8.24c-4,0.79-7.24-3.03-5.99-6.91c2.68-8.35,0.76-18.47-8.2-26.79
	c-0.42-0.39-0.91-0.71-1.42-0.95c-21.53-9.94-39.36,7.24-35.82,25.16c0.8,4.05,2.6,7.65,5.1,10.6c2.62,3.1,1.05,7.85-2.93,8.64
	l-41.67,8.24c-2.85,0.56-4.71,3.34-4.15,6.19l8.6,43.5c0.8,4.04,5.79,5.72,8.74,2.84c6.66-6.49,17.32-9.18,29.12-3.75
	c0.52,0.24,1.01,0.57,1.43,0.96c17.39,16.13,8.29,39.16-9.63,42.7c-4.56,0.9-9.08,0.41-13.11-1.17c-3.92-1.54-8,1.75-7.18,5.88
	l8.6,43.5c0.56,2.85,3.34,4.71,6.19,4.15l42.1-8.32c4.06-0.8,7.33,3.14,5.94,7.04c-1.37,3.85-1.76,8.1-0.91,12.4
	c3.54,17.91,26.57,27.02,42.7,9.63C442.55,483.9,442.88,483.4,443.12,482.88z"/>
</svg>
